<svg width="400" height="32" viewBox="0 0 400 32" fill="none" xmlns="http://www.w3.org/2000/svg">
<path d="M130.093 12.9907C130.416 12.6684 130.938 12.6684 131.261 12.9907L139.997 21.7271C140.319 22.0494 140.319 22.572 139.997 22.8943L131.261 31.6307C130.938 31.953 130.416 31.953 130.093 31.6307L121.357 22.8943C121.035 22.572 121.035 22.0494 121.357 21.7271L130.093 12.9907Z" fill="black"/>
<path d="M104.595 12.9907C104.918 12.6684 105.44 12.6684 105.762 12.9907L114.499 21.7271C114.821 22.0494 114.821 22.572 114.499 22.8943L105.762 31.6307C105.44 31.953 104.918 31.953 104.595 31.6307L95.8589 22.8943C95.5366 22.572 95.5366 22.0494 95.8589 21.7271L104.595 12.9907Z" fill="black"/>
<path d="M142.843 0.241724C143.166 -0.0805748 143.688 -0.0805748 144.011 0.241724L152.747 8.97816C153.069 9.30046 153.069 9.82301 152.747 10.1453L144.011 18.8817C143.688 19.204 143.166 19.204 142.843 18.8817L134.107 10.1453C133.785 9.82301 133.785 9.30046 134.107 8.97816L142.843 0.241724Z" fill="black"/>
<path d="M79.2921 16.0974C79.5069 15.8825 79.8553 15.8825 80.0702 16.0974L85.8945 21.9217C86.1093 22.1365 86.1093 22.4849 85.8945 22.6998L80.0702 28.5241C79.8553 28.7389 79.5069 28.7389 79.2921 28.5241L73.4678 22.6998C73.2529 22.4849 73.2529 22.1365 73.4678 21.9217L79.2921 16.0974Z" fill="black"/>
<path d="M53.794 16.0974C54.0089 15.8825 54.3573 15.8825 54.5721 16.0974L60.3964 21.9217C60.6113 22.1365 60.6113 22.4849 60.3964 22.6998L54.5721 28.5241C54.3573 28.7389 54.0089 28.7389 53.794 28.5241L47.9697 22.6998C47.7549 22.4849 47.7549 22.1365 47.9697 21.9217L53.794 16.0974Z" fill="black"/>
<path d="M92.0401 3.34841C92.255 3.13354 92.6034 3.13354 92.8182 3.34841L98.6425 9.1727C98.8574 9.38756 98.8574 9.73593 98.6425 9.9508L92.8182 15.7751C92.6034 15.99 92.255 15.99 92.0401 15.7751L86.2158 9.9508C86.001 9.73593 86.001 9.38756 86.2158 9.1727L92.0401 3.34841Z" fill="black"/>
<path d="M66.5421 3.34841C66.7569 3.13354 67.1053 3.13354 67.3202 3.34841L73.1445 9.1727C73.3593 9.38756 73.3593 9.73593 73.1445 9.9508L67.3202 15.7751C67.1053 15.99 66.7569 15.99 66.5421 15.7751L60.7178 9.9508C60.5029 9.73593 60.5029 9.38756 60.7178 9.1727L66.5421 3.34841Z" fill="black"/>
<path d="M15.5479 3.34841C15.7628 3.13354 16.1112 3.13354 16.326 3.34841L22.1503 9.1727C22.3652 9.38756 22.3652 9.73593 22.1503 9.9508L16.326 15.7751C16.1112 15.99 15.7628 15.99 15.5479 15.7751L9.72365 9.9508C9.50878 9.73593 9.50878 9.38756 9.72365 9.1727L15.5479 3.34841Z" fill="black"/>
<path d="M117.343 0.241724C117.666 -0.0805748 118.188 -0.0805748 118.511 0.241724L127.247 8.97816C127.569 9.30046 127.569 9.82301 127.247 10.1453L118.511 18.8817C118.188 19.204 117.666 19.204 117.343 18.8817L108.607 10.1453C108.285 9.82301 108.285 9.30046 108.607 8.97816L117.343 0.241724Z" fill="black"/>
<path d="M28.4908 19.204C28.5982 19.0966 28.7724 19.0966 28.8798 19.204L31.792 22.1162C31.8994 22.2236 31.8994 22.3978 31.792 22.5052L28.8798 25.4174C28.7724 25.5248 28.5982 25.5248 28.4908 25.4174L25.5786 22.5052C25.4712 22.3978 25.4712 22.2236 25.5786 22.1162L28.4908 19.204Z" fill="black"/>
<path d="M41.2388 6.45509C41.3462 6.34765 41.5204 6.34765 41.6279 6.45509L44.54 9.36723C44.6474 9.47467 44.6474 9.64885 44.54 9.75628L41.6279 12.6684C41.5204 12.7759 41.3462 12.7759 41.2388 12.6684L38.3267 9.75628C38.2192 9.64885 38.2192 9.47467 38.3267 9.36723L41.2388 6.45509Z" fill="black"/>
<path d="M2.99272 19.204C3.10015 19.0966 3.27434 19.0966 3.38177 19.204L6.29392 22.1162C6.40135 22.2236 6.40135 22.3978 6.29392 22.5052L3.38177 25.4174C3.27434 25.5248 3.10015 25.5248 2.99272 25.4174L0.0805748 22.5052C-0.0268583 22.3978 -0.0268583 22.2236 0.0805748 22.1162L2.99272 19.204Z" fill="black"/>
<path d="M154.795 12.9907C155.117 12.6684 155.639 12.6684 155.962 12.9907L164.698 21.7271C165.02 22.0494 165.02 22.572 164.698 22.8943L155.962 31.6307C155.639 31.953 155.117 31.953 154.795 31.6307L146.058 22.8943C145.736 22.572 145.736 22.0494 146.058 21.7271L154.795 12.9907Z" fill="black"/>
<path d="M194.209 0.241724C193.887 -0.0805748 193.364 -0.0805748 193.042 0.241724L184.306 8.97816C183.983 9.30046 183.983 9.82301 184.306 10.1453L193.042 18.8817C193.364 19.204 193.887 19.204 194.209 18.8817L202.946 10.1453C203.268 9.82301 203.268 9.30046 202.946 8.97816L194.209 0.241724Z" fill="black"/>
<path d="M219.707 0.241724C219.385 -0.0805748 218.863 -0.0805748 218.54 0.241724L209.804 8.97816C209.482 9.30046 209.482 9.82301 209.804 10.1453L218.54 18.8817C218.863 19.204 219.385 19.204 219.707 18.8817L228.444 10.1453C228.766 9.82301 228.766 9.30046 228.444 8.97816L219.707 0.241724Z" fill="black"/>
<path d="M206.957 12.9907C206.635 12.6684 206.113 12.6684 205.79 12.9907L197.054 21.7271C196.732 22.0494 196.732 22.572 197.054 22.8943L205.79 31.6307C206.113 31.953 206.635 31.953 206.957 31.6307L215.694 22.8943C216.016 22.572 216.016 22.0494 215.694 21.7271L206.957 12.9907Z" fill="black"/>
<path d="M232.455 12.9907C232.133 12.6684 231.611 12.6684 231.288 12.9907L222.552 21.7271C222.23 22.0494 222.23 22.572 222.552 22.8943L231.288 31.6307C231.611 31.953 232.133 31.953 232.455 31.6307L241.192 22.8943C241.514 22.572 241.514 22.0494 241.192 21.7271L232.455 12.9907Z" fill="black"/>
<path d="M181.459 12.9907C181.137 12.6684 180.614 12.6684 180.292 12.9907L171.556 21.7271C171.233 22.0494 171.233 22.572 171.556 22.8943L180.292 31.6307C180.614 31.953 181.137 31.953 181.459 31.6307L190.196 22.8943C190.518 22.572 190.518 22.0494 190.196 21.7271L181.459 12.9907Z" fill="black"/>
<path d="M245.011 3.34841C244.796 3.13354 244.447 3.13354 244.233 3.34841L238.408 9.1727C238.193 9.38756 238.193 9.73593 238.408 9.9508L244.233 15.7751C244.447 15.99 244.796 15.99 245.011 15.7751L250.835 9.9508C251.05 9.73593 251.05 9.38756 250.835 9.1727L245.011 3.34841Z" fill="black"/>
<path d="M270.509 3.34841C270.294 3.13354 269.945 3.13354 269.731 3.34841L263.906 9.1727C263.691 9.38756 263.691 9.73593 263.906 9.9508L269.731 15.7751C269.945 15.99 270.294 15.99 270.509 15.7751L276.333 9.9508C276.548 9.73593 276.548 9.38756 276.333 9.1727L270.509 3.34841Z" fill="black"/>
<path d="M257.759 16.0974C257.544 15.8825 257.195 15.8825 256.981 16.0974L251.156 21.9217C250.941 22.1365 250.941 22.4849 251.156 22.6998L256.981 28.5241C257.195 28.7389 257.544 28.7389 257.759 28.5241L263.583 22.6998C263.798 22.4849 263.798 22.1365 263.583 21.9217L257.759 16.0974Z" fill="black"/>
<path d="M295.812 6.45509C295.705 6.34765 295.53 6.34765 295.423 6.45509L292.511 9.36723C292.403 9.47467 292.403 9.64885 292.511 9.75628L295.423 12.6684C295.53 12.7759 295.705 12.7759 295.812 12.6684L298.724 9.75628C298.832 9.64885 298.832 9.47467 298.724 9.36723L295.812 6.45509Z" fill="black"/>
<path d="M283.062 19.204C282.955 19.0966 282.78 19.0966 282.673 19.204L279.761 22.1162C279.653 22.2236 279.653 22.3978 279.761 22.5052L282.673 25.4174C282.78 25.5248 282.955 25.5248 283.062 25.4174L285.974 22.5052C286.082 22.3978 286.082 22.2236 285.974 22.1162L283.062 19.204Z" fill="black"/>
<path d="M168.711 0.241724C168.389 -0.0805748 167.866 -0.0805748 167.544 0.241724L158.808 8.97816C158.485 9.30046 158.485 9.82301 158.808 10.1453L167.544 18.8817C167.866 19.204 168.389 19.204 168.711 18.8817L177.448 10.1453C177.77 9.82301 177.77 9.30046 177.448 8.97816L168.711 0.241724Z" fill="black"/>
<path d="M333.476 16.0974C333.691 15.8825 334.039 15.8825 334.254 16.0974L340.078 21.9217C340.293 22.1365 340.293 22.4849 340.078 22.6998L334.254 28.5241C334.039 28.7389 333.691 28.7389 333.476 28.5241L327.651 22.6998C327.437 22.4849 327.437 22.1365 327.651 21.9217L333.476 16.0974Z" fill="black"/>
<path d="M307.978 16.0974C308.192 15.8825 308.541 15.8825 308.756 16.0974L314.58 21.9217C314.795 22.1365 314.795 22.4849 314.58 22.6998L308.756 28.5241C308.541 28.7389 308.192 28.7389 307.978 28.5241L302.153 22.6998C301.938 22.4849 301.938 22.1365 302.153 21.9217L307.978 16.0974Z" fill="black"/>
<path d="M346.224 3.34841C346.439 3.13354 346.787 3.13354 347.002 3.34841L352.826 9.1727C353.041 9.38756 353.041 9.73593 352.826 9.9508L347.002 15.7751C346.787 15.99 346.439 15.99 346.224 15.7751L340.399 9.9508C340.185 9.73593 340.185 9.38756 340.399 9.1727L346.224 3.34841Z" fill="black"/>
<path d="M384.665 19.204C384.772 19.0966 384.946 19.0966 385.054 19.204L387.966 22.1162C388.073 22.2236 388.073 22.3978 387.966 22.5052L385.054 25.4174C384.946 25.5248 384.772 25.5248 384.665 25.4174L381.752 22.5052C381.645 22.3978 381.645 22.2236 381.752 22.1162L384.665 19.204Z" fill="black"/>
<path d="M359.169 19.204C359.276 19.0966 359.45 19.0966 359.558 19.204L362.47 22.1162C362.577 22.2236 362.577 22.3978 362.47 22.5052L359.558 25.4174C359.45 25.5248 359.276 25.5248 359.169 25.4174L356.256 22.5052C356.149 22.3978 356.149 22.2236 356.256 22.1162L359.169 19.204Z" fill="black"/>
<path d="M320.92 6.45509C321.028 6.34765 321.202 6.34765 321.31 6.45509L324.222 9.36723C324.329 9.47467 324.329 9.64885 324.222 9.75628L321.31 12.6684C321.202 12.7759 321.028 12.7759 320.92 12.6684L318.008 9.75628C317.901 9.64885 317.901 9.47467 318.008 9.36723L320.92 6.45509Z" fill="black"/>
<path d="M371.704 3.34841C371.489 3.13354 371.141 3.13354 370.926 3.34841L365.102 9.1727C364.887 9.38756 364.887 9.73593 365.102 9.9508L370.926 15.7751C371.141 15.99 371.489 15.99 371.704 15.7751L377.528 9.9508C377.743 9.73593 377.743 9.38756 377.528 9.1727L371.704 3.34841Z" fill="black"/>
<path d="M397.007 6.45509C396.9 6.34765 396.726 6.34765 396.618 6.45509L393.706 9.36723C393.599 9.47467 393.599 9.64885 393.706 9.75628L396.618 12.6684C396.726 12.7759 396.9 12.7759 397.007 12.6684L399.919 9.75628C400.027 9.64885 400.027 9.47467 399.919 9.36723L397.007 6.45509Z" fill="black"/>
</svg>
