<svg width="400" height="32" viewBox="0 0 400 32" fill="none" xmlns="http://www.w3.org/2000/svg">
<path d="M214.133 17.5403C213.841 17.7443 213.435 17.7443 213.143 17.5403L204.308 11.3697C204.036 11.1801 203.923 10.8558 204.024 10.5574L207.415 0.525206C207.52 0.212941 207.836 -1.38283e-05 208.194 -1.38283e-05H219.083C219.44 -1.38283e-05 219.756 0.21294 219.862 0.525204L223.253 10.5574C223.354 10.8558 223.24 11.1801 222.969 11.3697L214.133 17.5403Z" fill="black"/>
<path d="M191.613 17.5403C191.321 17.7443 190.916 17.7443 190.624 17.5403L181.788 11.3697C181.517 11.1801 181.403 10.8558 181.504 10.5574L184.895 0.525206C185.001 0.212941 185.317 -1.38283e-05 185.674 -1.38283e-05H196.563C196.921 -1.38283e-05 197.236 0.21294 197.342 0.525204L200.733 10.5574C200.834 10.8558 200.721 11.1801 200.449 11.3697L191.613 17.5403Z" fill="black"/>
<path d="M179.365 13.8252C179.657 13.6211 180.063 13.6211 180.355 13.8252L189.19 19.9958C189.462 20.1854 189.575 20.5096 189.474 20.808L186.083 30.8402C185.978 31.1525 185.662 31.3655 185.304 31.3655L174.415 31.3655C174.058 31.3655 173.742 31.1525 173.636 30.8402L170.245 20.808C170.145 20.5096 170.258 20.1854 170.529 19.9958L179.365 13.8252Z" fill="black"/>
<path d="M201.885 13.8252C202.177 13.6211 202.582 13.6211 202.874 13.8252L211.71 19.9958C211.981 20.1854 212.095 20.5096 211.994 20.808L208.603 30.8402C208.497 31.1525 208.181 31.3655 207.824 31.3655L196.935 31.3655C196.577 31.3655 196.262 31.1525 196.156 30.8402L192.765 20.808C192.664 20.5096 192.777 20.1854 193.049 19.9958L201.885 13.8252Z" fill="black"/>
<path d="M256.693 15.1693C256.48 15.3176 256.185 15.3176 255.973 15.1693L249.547 10.6815C249.349 10.5436 249.267 10.3078 249.34 10.0908L251.807 2.79466C251.883 2.56755 252.113 2.41268 252.373 2.41268H260.292C260.552 2.41268 260.782 2.56755 260.859 2.79465L263.325 10.0908C263.398 10.3078 263.316 10.5436 263.119 10.6815L256.693 15.1693Z" fill="black"/>
<path d="M234.173 15.1693C233.961 15.3176 233.666 15.3176 233.453 15.1693L227.027 10.6815C226.83 10.5436 226.747 10.3078 226.821 10.0908L229.287 2.79466C229.364 2.56755 229.594 2.41268 229.854 2.41268H237.773C238.033 2.41268 238.263 2.56755 238.339 2.79465L240.806 10.0908C240.879 10.3078 240.796 10.5436 240.599 10.6815L234.173 15.1693Z" fill="black"/>
<path d="M221.903 16.1962C222.116 16.0478 222.41 16.0478 222.623 16.1962L229.049 20.6839C229.246 20.8218 229.329 21.0576 229.255 21.2746L226.789 28.5708C226.712 28.7979 226.483 28.9528 226.223 28.9528L218.303 28.9528C218.043 28.9528 217.814 28.7979 217.737 28.5708L215.271 21.2746C215.197 21.0576 215.28 20.8218 215.477 20.6839L221.903 16.1962Z" fill="black"/>
<path d="M244.421 16.1962C244.633 16.0478 244.928 16.0478 245.14 16.1962L251.566 20.6839C251.764 20.8218 251.846 21.0576 251.773 21.2746L249.307 28.5708C249.23 28.7979 249 28.9528 248.74 28.9528L240.821 28.9528C240.561 28.9528 240.331 28.7979 240.254 28.5708L237.788 21.2746C237.715 21.0576 237.797 20.8218 237.995 20.6839L244.421 16.1962Z" fill="black"/>
<path d="M275.809 12.008C275.703 12.0822 275.556 12.0822 275.449 12.008L272.236 9.76413C272.138 9.69519 272.096 9.57728 272.133 9.46877L273.366 5.82067C273.405 5.70712 273.519 5.62968 273.649 5.62968H277.609C277.739 5.62968 277.854 5.70712 277.892 5.82067L279.125 9.46877C279.162 9.57728 279.121 9.69519 279.022 9.76413L275.809 12.008Z" fill="black"/>
<path d="M264.339 19.3575C264.445 19.2833 264.593 19.2833 264.699 19.3575L267.912 21.6014C268.011 21.6703 268.052 21.7882 268.015 21.8967L266.782 25.5448C266.744 25.6584 266.629 25.7358 266.499 25.7358L262.539 25.7358C262.409 25.7358 262.295 25.6584 262.256 25.5448L261.023 21.8967C260.986 21.7882 261.028 21.6703 261.126 21.6014L264.339 19.3575Z" fill="black"/>
<path d="M286.857 19.3575C286.963 19.2833 287.11 19.2833 287.217 19.3575L290.43 21.6014C290.528 21.6703 290.57 21.7882 290.533 21.8967L289.3 25.5448C289.261 25.6584 289.147 25.7358 289.017 25.7358L285.057 25.7358C284.927 25.7358 284.812 25.6584 284.774 25.5448L283.541 21.8967C283.504 21.7882 283.545 21.6703 283.644 21.6014L286.857 19.3575Z" fill="black"/>
<path d="M169.096 17.5403C168.804 17.7443 168.398 17.7443 168.106 17.5403L159.27 11.3697C158.999 11.1801 158.886 10.8558 158.987 10.5574L162.378 0.525206C162.483 0.212941 162.799 -1.38283e-05 163.157 -1.38283e-05H174.046C174.403 -1.38283e-05 174.719 0.21294 174.824 0.525204L178.216 10.5574C178.316 10.8558 178.203 11.1801 177.932 11.3697L169.096 17.5403Z" fill="black"/>
<path d="M123.06 17.5403C123.353 17.7443 123.758 17.7443 124.05 17.5403L132.886 11.3697C133.157 11.1801 133.271 10.8558 133.17 10.5574L129.779 0.525206C129.673 0.212941 129.357 -1.38283e-05 129 -1.38283e-05H118.111C117.753 -1.38283e-05 117.437 0.21294 117.332 0.525204L113.941 10.5574C113.84 10.8558 113.953 11.1801 114.225 11.3697L123.06 17.5403Z" fill="black"/>
<path d="M145.582 17.5403C145.874 17.7443 146.279 17.7443 146.572 17.5403L155.407 11.3697C155.679 11.1801 155.792 10.8558 155.691 10.5574L152.3 0.525206C152.195 0.212941 151.879 -1.38283e-05 151.521 -1.38283e-05H140.632C140.275 -1.38283e-05 139.959 0.21294 139.853 0.525204L136.462 10.5574C136.361 10.8558 136.475 11.1801 136.746 11.3697L145.582 17.5403Z" fill="black"/>
<path d="M157.83 13.8252C157.538 13.6211 157.133 13.6211 156.841 13.8252L148.005 19.9958C147.733 20.1854 147.62 20.5096 147.721 20.808L151.112 30.8402C151.218 31.1525 151.533 31.3655 151.891 31.3655L162.78 31.3655C163.137 31.3655 163.453 31.1525 163.559 30.8402L166.95 20.808C167.051 20.5096 166.937 20.1854 166.666 19.9958L157.83 13.8252Z" fill="black"/>
<path d="M135.311 13.8252C135.019 13.6211 134.613 13.6211 134.321 13.8252L125.485 19.9958C125.214 20.1854 125.1 20.5096 125.201 20.808L128.592 30.8402C128.698 31.1525 129.014 31.3655 129.371 31.3655L140.26 31.3655C140.618 31.3655 140.934 31.1525 141.039 30.8402L144.43 20.808C144.531 20.5096 144.418 20.1854 144.146 19.9958L135.311 13.8252Z" fill="black"/>
<path d="M80.5007 15.1693C80.7132 15.3176 81.0081 15.3176 81.2205 15.1693L87.6465 10.6815C87.8439 10.5436 87.9264 10.3078 87.853 10.0908L85.3867 2.79466C85.31 2.56755 85.0803 2.41268 84.8203 2.41268H76.901C76.641 2.41268 76.4113 2.56755 76.3345 2.79465L73.8683 10.0908C73.7949 10.3078 73.8773 10.5436 74.0748 10.6815L80.5007 15.1693Z" fill="black"/>
<path d="M103.02 15.1693C103.233 15.3176 103.528 15.3176 103.74 15.1693L110.166 10.6815C110.363 10.5436 110.446 10.3078 110.373 10.0908L107.906 2.79466C107.83 2.56755 107.6 2.41268 107.34 2.41268H99.4205C99.1605 2.41268 98.9308 2.56755 98.8541 2.79465L96.3878 10.0908C96.3144 10.3078 96.3969 10.5436 96.5943 10.6815L103.02 15.1693Z" fill="black"/>
<path d="M115.292 16.1962C115.08 16.0478 114.785 16.0478 114.572 16.1962L108.146 20.6839C107.949 20.8218 107.867 21.0576 107.94 21.2746L110.406 28.5708C110.483 28.7979 110.713 28.9528 110.973 28.9528L118.892 28.9528C119.152 28.9528 119.382 28.7979 119.458 28.5708L121.925 21.2746C121.998 21.0576 121.916 20.8218 121.718 20.6839L115.292 16.1962Z" fill="black"/>
<path d="M92.7727 16.1962C92.5602 16.0478 92.2654 16.0478 92.0529 16.1962L85.627 20.6839C85.4295 20.8218 85.3471 21.0576 85.4204 21.2746L87.8867 28.5708C87.9635 28.7979 88.1931 28.9528 88.4531 28.9528L96.3725 28.9528C96.6325 28.9528 96.8621 28.7979 96.9389 28.5708L99.4052 21.2746C99.4785 21.0576 99.3961 20.8218 99.1986 20.6839L92.7727 16.1962Z" fill="black"/>
<path d="M50.8079 16.1962C50.5954 16.0478 50.3005 16.0478 50.088 16.1962L43.6621 20.6839C43.4647 20.8218 43.3822 21.0576 43.4556 21.2746L45.9219 28.5708C45.9986 28.7979 46.2283 28.9528 46.4883 28.9528L54.4076 28.9528C54.6676 28.9528 54.8973 28.7979 54.9741 28.5708L57.4403 21.2746C57.5137 21.0576 57.4312 20.8218 57.2338 20.6839L50.8079 16.1962Z" fill="black"/>
<path d="M61.3842 12.008C61.4904 12.0822 61.6378 12.0822 61.7441 12.008L64.9571 9.76413C65.0558 9.69519 65.097 9.57728 65.0603 9.46877L63.8272 5.82067C63.7888 5.70712 63.674 5.62968 63.544 5.62968H59.5843C59.4543 5.62968 59.3394 5.70712 59.3011 5.82067L58.0679 9.46877C58.0312 9.57728 58.0725 9.69519 58.1712 9.76413L61.3842 12.008Z" fill="black"/>
<path d="M39.6713 12.008C39.7775 12.0822 39.925 12.0822 40.0312 12.008L43.2442 9.76413C43.3429 9.69519 43.3841 9.57728 43.3474 9.46877L42.1143 5.82067C42.0759 5.70712 41.9611 5.62968 41.8311 5.62968H37.8714C37.7414 5.62968 37.6266 5.70712 37.5882 5.82067L36.355 9.46877C36.3183 9.57728 36.3596 9.69519 36.4583 9.76413L39.6713 12.008Z" fill="black"/>
<path d="M72.8541 19.3575C72.7479 19.2833 72.6004 19.2833 72.4942 19.3575L69.2812 21.6014C69.1825 21.6703 69.1413 21.7882 69.1779 21.8967L70.4111 25.5448C70.4495 25.6584 70.5643 25.7358 70.6943 25.7358L74.654 25.7358C74.784 25.7358 74.8988 25.6584 74.9372 25.5448L76.1704 21.8967C76.207 21.7882 76.1658 21.6703 76.0671 21.6014L72.8541 19.3575Z" fill="black"/>
<path d="M27.817 19.3575C27.7108 19.2833 27.5633 19.2833 27.4571 19.3575L24.2441 21.6014C24.1454 21.6703 24.1042 21.7882 24.1408 21.8967L25.374 25.5448C25.4124 25.6584 25.5272 25.7358 25.6572 25.7358L29.6169 25.7358C29.7469 25.7358 29.8617 25.6584 29.9001 25.5448L31.1333 21.8967C31.1699 21.7882 31.1287 21.6703 31.03 21.6014L27.817 19.3575Z" fill="black"/>
<path d="M15.5424 12.008C15.6486 12.0822 15.796 12.0822 15.9023 12.008L19.1153 9.76413C19.214 9.69519 19.2552 9.57728 19.2185 9.46877L17.9854 5.82067C17.947 5.70712 17.8322 5.62968 17.7022 5.62968H13.7425C13.6125 5.62968 13.4976 5.70712 13.4593 5.82067L12.2261 9.46877C12.1894 9.57728 12.2307 9.69519 12.3294 9.76413L15.5424 12.008Z" fill="black"/>
<path d="M3.69005 19.3575C3.5838 19.2833 3.43638 19.2833 3.33013 19.3575L0.117147 21.6014C0.0184246 21.6703 -0.0228 21.7882 0.0138788 21.8967L1.24702 25.5448C1.28541 25.6584 1.40024 25.7358 1.53025 25.7358L5.48993 25.7358C5.61994 25.7358 5.73477 25.6584 5.77316 25.5448L7.0063 21.8967C7.04298 21.7882 7.00175 21.6703 6.90303 21.6014L3.69005 19.3575Z" fill="black"/>
<path d="M294.938 15.1692C295.151 15.3176 295.446 15.3176 295.658 15.1692L302.084 10.6815C302.281 10.5436 302.364 10.3078 302.291 10.0908L299.824 2.79463C299.747 2.56752 299.518 2.41265 299.258 2.41265H291.338C291.078 2.41265 290.849 2.56752 290.772 2.79462L288.306 10.0908C288.232 10.3078 288.315 10.5436 288.512 10.6815L294.938 15.1692Z" fill="black"/>
<path d="M317.458 15.1692C317.67 15.3176 317.965 15.3176 318.178 15.1692L324.604 10.6815C324.801 10.5436 324.883 10.3078 324.81 10.0908L322.344 2.79462C322.267 2.56752 322.037 2.41265 321.777 2.41265H313.858C313.598 2.41265 313.368 2.56752 313.292 2.79462L310.825 10.0908C310.752 10.3078 310.834 10.5436 311.032 10.6815L317.458 15.1692Z" fill="black"/>
<path d="M329.73 16.1962C329.517 16.0478 329.222 16.0478 329.01 16.1962L322.584 20.6839C322.387 20.8218 322.304 21.0576 322.377 21.2746L324.844 28.5708C324.92 28.7979 325.15 28.9528 325.41 28.9528L333.329 28.9528C333.59 28.9528 333.819 28.7979 333.896 28.5708L336.362 21.2746C336.436 21.0576 336.353 20.8218 336.156 20.6839L329.73 16.1962Z" fill="black"/>
<path d="M373.019 16.1962C372.806 16.0478 372.511 16.0478 372.299 16.1962L365.873 20.6839C365.676 20.8218 365.593 21.0576 365.667 21.2746L368.133 28.5708C368.21 28.7979 368.439 28.9528 368.699 28.9528L376.619 28.9528C376.879 28.9528 377.108 28.7979 377.185 28.5708L379.651 21.2746C379.725 21.0576 379.642 20.8218 379.445 20.6839L373.019 16.1962Z" fill="black"/>
<path d="M307.21 16.1962C306.998 16.0478 306.703 16.0478 306.49 16.1962L300.064 20.6839C299.867 20.8218 299.785 21.0576 299.858 21.2746L302.324 28.5708C302.401 28.7979 302.631 28.9528 302.891 28.9528L310.81 28.9528C311.07 28.9528 311.3 28.7979 311.376 28.5708L313.843 21.2746C313.916 21.0576 313.834 20.8218 313.636 20.6839L307.21 16.1962Z" fill="black"/>
<path d="M341.652 15.1693C341.439 15.3176 341.144 15.3176 340.932 15.1693L334.506 10.6815C334.308 10.5436 334.226 10.3078 334.299 10.0908L336.766 2.79466C336.842 2.56755 337.072 2.41268 337.332 2.41268H345.251C345.511 2.41268 345.741 2.56755 345.818 2.79465L348.284 10.0908C348.357 10.3078 348.275 10.5436 348.078 10.6815L341.652 15.1693Z" fill="black"/>
<path d="M362.743 12.008C362.637 12.0822 362.489 12.0822 362.383 12.008L359.17 9.76413C359.071 9.69519 359.03 9.57728 359.067 9.46877L360.3 5.82067C360.338 5.70712 360.453 5.62968 360.583 5.62968H364.543C364.673 5.62968 364.788 5.70712 364.826 5.82067L366.059 9.46877C366.096 9.57728 366.054 9.69519 365.956 9.76413L362.743 12.008Z" fill="black"/>
<path d="M384.458 12.008C384.351 12.0822 384.204 12.0822 384.098 12.008L380.885 9.76413C380.786 9.69519 380.745 9.57728 380.781 9.46877L382.015 5.82067C382.053 5.70712 382.168 5.62968 382.298 5.62968H386.258C386.388 5.62968 386.502 5.70712 386.541 5.82067L387.774 9.46877C387.811 9.57728 387.769 9.69519 387.671 9.76413L384.458 12.008Z" fill="black"/>
<path d="M351.275 19.3575C351.381 19.2833 351.528 19.2833 351.635 19.3575L354.848 21.6014C354.946 21.6703 354.988 21.7882 354.951 21.8967L353.718 25.5448C353.679 25.6584 353.565 25.7358 353.435 25.7358L349.475 25.7358C349.345 25.7358 349.23 25.6584 349.192 25.5448L347.959 21.8967C347.922 21.7882 347.963 21.6703 348.062 21.6014L351.275 19.3575Z" fill="black"/>
<path d="M396.31 19.3575C396.416 19.2833 396.564 19.2833 396.67 19.3575L399.883 21.6013C399.982 21.6703 400.023 21.7882 399.986 21.8967L398.753 25.5448C398.715 25.6584 398.6 25.7358 398.47 25.7358L394.51 25.7358C394.38 25.7358 394.265 25.6584 394.227 25.5448L392.994 21.8967C392.957 21.7882 392.998 21.6703 393.097 21.6013L396.31 19.3575Z" fill="black"/>
</svg>
