<svg width="400" height="39" viewBox="0 0 400 39" fill="none" xmlns="http://www.w3.org/2000/svg">
<path d="M139.848 4.3505C139.627 3.95105 139.071 3.95104 138.85 4.35048L132.944 15.0437C132.725 15.4401 133.002 15.9333 133.443 15.9333L145.255 15.9333C145.696 15.9333 145.972 15.4401 145.754 15.0438L139.848 4.3505Z" fill="black"/>
<path d="M124.827 17.3743C125.158 17.9735 125.993 17.9735 126.324 17.3744L135.183 1.33448C135.511 0.739907 135.096 9.94205e-05 134.434 9.94205e-05H116.717C116.055 9.94205e-05 115.64 0.739878 115.968 1.33445L124.827 17.3743Z" fill="black"/>
<path d="M152.374 17.3743C152.704 17.9735 153.539 17.9735 153.87 17.3744L162.729 1.33448C163.058 0.739907 162.643 9.94205e-05 161.981 9.94205e-05H144.264C143.602 9.94205e-05 143.187 0.739878 143.515 1.33445L152.374 17.3743Z" fill="black"/>
<path d="M153.871 21.5137C153.54 20.9145 152.705 20.9145 152.374 21.5137L143.515 37.5536C143.186 38.1482 143.601 38.888 144.263 38.888L161.98 38.888C162.642 38.888 163.057 38.1482 162.729 37.5536L153.871 21.5137Z" fill="black"/>
<path d="M138.6 38.4385C138.931 39.0377 139.766 39.0377 140.097 38.4386L148.956 22.3987C149.284 21.8041 148.87 21.0643 148.208 21.0643L130.49 21.0643C129.828 21.0643 129.413 21.8041 129.742 22.3987L138.6 38.4385Z" fill="black"/>
<path d="M111.053 38.4385C111.384 39.0377 112.219 39.0377 112.55 38.4386L121.409 22.3987C121.738 21.8041 121.323 21.0643 120.661 21.0643L102.943 21.0643C102.281 21.0643 101.867 21.8041 102.195 22.3987L111.053 38.4385Z" fill="black"/>
<path d="M125.076 24.6045C125.296 24.2051 125.853 24.2051 126.074 24.6045L131.98 35.2978C132.199 35.6941 131.922 36.1874 131.481 36.1874L119.669 36.1874C119.228 36.1874 118.951 35.6942 119.17 35.2978L125.076 24.6045Z" fill="black"/>
<path d="M42.1062 33.0534C41.9858 33.2713 41.6822 33.2713 41.5619 33.0534L38.3404 27.2207C38.2209 27.0045 38.3718 26.7355 38.6125 26.7355L45.0552 26.7355C45.2959 26.7355 45.4468 27.0045 45.3274 27.2207L42.1062 33.0534Z" fill="black"/>
<path d="M3.26296 6.64468C3.38329 6.42679 3.68694 6.42679 3.80728 6.64467L7.02878 12.4774C7.1482 12.6936 6.99731 12.9626 6.75663 12.9626H0.313921C0.0732434 12.9626 -0.0776449 12.6936 0.0417604 12.4774L3.26296 6.64468Z" fill="black"/>
<path d="M16.1823 33.0534C16.062 33.2713 15.7584 33.2713 15.638 33.0534L12.4165 27.2207C12.2971 27.0045 12.448 26.7355 12.6887 26.7355L19.1314 26.7355C19.3721 26.7355 19.523 27.0045 19.4036 27.2207L16.1823 33.0534Z" fill="black"/>
<path d="M74.0368 4.3505C74.2574 3.95105 74.8141 3.95103 75.0347 4.35048L80.9408 15.0437C81.1597 15.4401 80.8831 15.9333 80.4418 15.9333H68.6302C68.189 15.9333 67.9123 15.4401 68.1312 15.0438L74.0368 4.3505Z" fill="black"/>
<path d="M28.6657 4.3505C28.8863 3.95105 29.443 3.95103 29.6636 4.35048L35.5697 15.0437C35.7886 15.4401 35.512 15.9333 35.0707 15.9333H23.2591C22.8179 15.9333 22.5412 15.4401 22.7602 15.0438L28.6657 4.3505Z" fill="black"/>
<path d="M98.5277 14.8235C98.3071 15.223 97.7504 15.223 97.5298 14.8235L91.6237 4.13028C91.4048 3.73389 91.6814 3.24069 92.1226 3.24069L103.934 3.24069C104.375 3.24069 104.652 3.73387 104.433 4.13026L98.5277 14.8235Z" fill="black"/>
<path d="M82.3246 35.8878C82.104 36.2872 81.5473 36.2872 81.3266 35.8878L75.4206 25.1945C75.2016 24.7982 75.4783 24.305 75.9195 24.305L87.7311 24.305C88.1724 24.305 88.449 24.7981 88.2301 25.1945L82.3246 35.8878Z" fill="black"/>
<path d="M94.2887 24.6045C94.5093 24.2051 95.066 24.2051 95.2866 24.6045L101.193 35.2978C101.412 35.6941 101.135 36.1874 100.694 36.1874L88.8822 36.1874C88.4409 36.1874 88.1643 35.6942 88.3832 35.2978L94.2887 24.6045Z" fill="black"/>
<path d="M60.2633 24.6045C60.4839 24.2051 61.0406 24.2051 61.2612 24.6045L67.1673 35.2978C67.3862 35.6941 67.1096 36.1874 66.6684 36.1874L54.8568 36.1874C54.4155 36.1874 54.1389 35.6942 54.3578 35.2978L60.2633 24.6045Z" fill="black"/>
<path d="M112.303 4.3505C112.082 3.95105 111.526 3.95104 111.305 4.35048L105.399 15.0437C105.18 15.4401 105.457 15.9333 105.898 15.9333L117.71 15.9333C118.151 15.9333 118.428 15.4401 118.209 15.0438L112.303 4.3505Z" fill="black"/>
<path d="M166.145 0.449399C166.476 -0.149784 167.311 -0.149802 167.642 0.449367L176.501 16.4892C176.829 17.0838 176.414 17.8236 175.753 17.8236L158.035 17.8236C157.373 17.8236 156.958 17.0839 157.287 16.4893L166.145 0.449399Z" fill="black"/>
<path d="M167.644 38.4385C167.313 39.0377 166.478 39.0377 166.147 38.4386L157.288 22.3987C156.96 21.8041 157.375 21.0643 158.037 21.0643L175.754 21.0643C176.416 21.0643 176.831 21.8041 176.502 22.3987L167.644 38.4385Z" fill="black"/>
<path d="M193.69 0.44946C194.021 -0.149723 194.856 -0.149741 195.187 0.449428L204.046 16.4893C204.374 17.0839 203.959 17.8237 203.297 17.8237L185.58 17.8237C184.918 17.8237 184.503 17.0839 184.832 16.4893L193.69 0.44946Z" fill="black"/>
<path d="M208.96 17.3743C208.63 17.9735 207.795 17.9735 207.464 17.3744L198.604 1.33448C198.276 0.739907 198.691 9.94205e-05 199.353 9.94205e-05H217.07C217.732 9.94205e-05 218.147 0.739878 217.819 1.33445L208.96 17.3743Z" fill="black"/>
<path d="M181.416 17.3743C181.085 17.9735 180.25 17.9735 179.919 17.3744L171.06 1.33448C170.731 0.739907 171.146 9.94205e-05 171.808 9.94205e-05H189.525C190.187 9.94205e-05 190.602 0.739878 190.274 1.33445L181.416 17.3743Z" fill="black"/>
<path d="M179.918 21.5137C180.249 20.9145 181.084 20.9145 181.415 21.5137L190.274 37.5536C190.603 38.1482 190.188 38.888 189.526 38.888L171.809 38.888C171.147 38.888 170.732 38.1482 171.06 37.5536L179.918 21.5137Z" fill="black"/>
<path d="M222.734 38.4385C222.403 39.0377 221.568 39.0377 221.237 38.4386L212.378 22.3987C212.05 21.8041 212.464 21.0643 213.126 21.0643L230.844 21.0643C231.506 21.0643 231.921 21.8041 231.592 22.3987L222.734 38.4385Z" fill="black"/>
<path d="M208.711 24.6045C208.491 24.2051 207.934 24.2051 207.713 24.6045L201.807 35.2978C201.588 35.6941 201.865 36.1874 202.306 36.1874L214.118 36.1874C214.559 36.1874 214.836 35.6942 214.617 35.2978L208.711 24.6045Z" fill="black"/>
<path d="M363.786 12.7992C363.907 13.0171 364.21 13.0171 364.331 12.7992L367.552 6.96648C367.672 6.75027 367.521 6.48125 367.28 6.48125L360.837 6.48125C360.597 6.48125 360.446 6.75026 360.565 6.96647L363.786 12.7992Z" fill="black"/>
<path d="M53.4934 12.7992C53.6138 13.0171 53.9174 13.0171 54.0377 12.7992L57.2593 6.96654C57.3787 6.75033 57.2278 6.48131 56.9871 6.48131L50.5444 6.48131C50.3037 6.48131 50.1528 6.75032 50.2722 6.96653L53.4934 12.7992Z" fill="black"/>
<path d="M276.29 12.7992C276.411 13.0171 276.714 13.0171 276.835 12.7992L280.056 6.96648C280.176 6.75027 280.025 6.48125 279.784 6.48125L273.341 6.48125C273.101 6.48125 272.95 6.75026 273.069 6.96647L276.29 12.7992Z" fill="black"/>
<path d="M289.251 33.0534C289.372 33.2713 289.675 33.2713 289.796 33.0534L293.017 27.2207C293.136 27.0045 292.986 26.7355 292.745 26.7355H286.302C286.062 26.7355 285.911 27.0045 286.03 27.2207L289.251 33.0534Z" fill="black"/>
<path d="M289.796 6.64474C289.675 6.42686 289.372 6.42685 289.251 6.64473L286.03 12.4774C285.91 12.6936 286.061 12.9627 286.302 12.9627L292.745 12.9627C292.985 12.9627 293.136 12.6936 293.017 12.4774L289.796 6.64474Z" fill="black"/>
<path d="M318.962 6.64474C318.841 6.42686 318.538 6.42685 318.417 6.64473L315.196 12.4774C315.076 12.6936 315.227 12.9627 315.468 12.9627L321.911 12.9627C322.151 12.9627 322.302 12.6936 322.183 12.4774L318.962 6.64474Z" fill="black"/>
<path d="M259.752 4.3505C259.532 3.95105 258.975 3.95103 258.754 4.35048L252.848 15.0437C252.629 15.4401 252.906 15.9333 253.347 15.9333H265.159C265.6 15.9333 265.877 15.4401 265.658 15.0438L259.752 4.3505Z" fill="black"/>
<path d="M235.259 14.8235C235.48 15.223 236.037 15.223 236.257 14.8235L242.163 4.13028C242.382 3.73389 242.106 3.24069 241.664 3.24069L229.853 3.24069C229.412 3.24069 229.135 3.73387 229.354 4.13026L235.259 14.8235Z" fill="black"/>
<path d="M304.931 14.8235C305.152 15.223 305.709 15.223 305.929 14.8235L311.835 4.13028C312.054 3.73389 311.778 3.24069 311.336 3.24069L299.525 3.24069C299.083 3.24069 298.807 3.73387 299.026 4.13026L304.931 14.8235Z" fill="black"/>
<path d="M251.463 35.8878C251.683 36.2872 252.24 36.2872 252.46 35.8878L258.367 25.1945C258.585 24.7982 258.309 24.305 257.868 24.305L246.056 24.305C245.615 24.305 245.338 24.7981 245.557 25.1945L251.463 35.8878Z" fill="black"/>
<path d="M194.75 35.8878C194.97 36.2872 195.527 36.2872 195.748 35.8878L201.654 25.1945C201.873 24.7982 201.596 24.305 201.155 24.305L189.343 24.305C188.902 24.305 188.625 24.7981 188.844 25.1945L194.75 35.8878Z" fill="black"/>
<path d="M236.258 24.6045C236.038 24.2051 235.481 24.2051 235.26 24.6045L229.354 35.2978C229.135 35.6941 229.412 36.1874 229.853 36.1874L241.665 36.1874C242.106 36.1874 242.383 35.6942 242.164 35.2978L236.258 24.6045Z" fill="black"/>
<path d="M273.526 24.6045C273.305 24.2051 272.748 24.2051 272.528 24.6045L266.622 35.2978C266.403 35.6941 266.679 36.1874 267.121 36.1874L278.932 36.1874C279.374 36.1874 279.65 35.6942 279.431 35.2978L273.526 24.6045Z" fill="black"/>
<path d="M221.486 4.3505C221.707 3.95105 222.263 3.95104 222.484 4.35048L228.39 15.0437C228.609 15.4401 228.332 15.9333 227.891 15.9333L216.079 15.9333C215.638 15.9333 215.362 15.4401 215.58 15.0438L221.486 4.3505Z" fill="black"/>
<path d="M305.932 24.6045C305.711 24.2051 305.155 24.2051 304.934 24.6045L299.028 35.2978C298.809 35.6941 299.086 36.1874 299.527 36.1874L311.339 36.1874C311.78 36.1874 312.056 35.6942 311.838 35.2978L305.932 24.6045Z" fill="black"/>
<path d="M386.426 6.64468C386.306 6.42679 386.003 6.42679 385.882 6.64467L382.661 12.4774C382.541 12.6936 382.692 12.9626 382.933 12.9626H389.376C389.616 12.9626 389.767 12.6936 389.648 12.4774L386.426 6.64468Z" fill="black"/>
<path d="M375.939 33.0534C376.059 33.2713 376.363 33.2713 376.483 33.0534L379.705 27.2207C379.824 27.0045 379.673 26.7355 379.432 26.7355H372.99C372.749 26.7355 372.598 27.0045 372.718 27.2207L375.939 33.0534Z" fill="black"/>
<path d="M344.341 33.0534C344.461 33.2713 344.765 33.2713 344.885 33.0534L348.107 27.2207C348.226 27.0045 348.075 26.7355 347.835 26.7355H341.392C341.151 26.7355 341 27.0045 341.12 27.2207L344.341 33.0534Z" fill="black"/>
<path d="M396.737 26.8989C396.617 26.681 396.313 26.681 396.193 26.8989L392.971 32.7316C392.852 32.9478 393.003 33.2168 393.243 33.2168L399.686 33.2168C399.927 33.2168 400.078 32.9478 399.958 32.7316L396.737 26.8989Z" fill="black"/>
<path d="M344.819 4.3505C344.598 3.95105 344.041 3.95103 343.821 4.35048L337.915 15.0437C337.696 15.4401 337.972 15.9333 338.414 15.9333H350.225C350.667 15.9333 350.943 15.4401 350.724 15.0438L344.819 4.3505Z" fill="black"/>
<path d="M330.857 14.8235C331.078 15.223 331.634 15.223 331.855 14.8235L337.761 4.13028C337.98 3.73389 337.703 3.24069 337.262 3.24069L325.451 3.24069C325.009 3.24069 324.733 3.73387 324.952 4.13026L330.857 14.8235Z" fill="black"/>
<path d="M317.896 35.8878C318.117 36.2872 318.673 36.2872 318.894 35.8878L324.8 25.1945C325.019 24.7982 324.742 24.305 324.301 24.305L312.49 24.305C312.048 24.305 311.772 24.7981 311.991 25.1945L317.896 35.8878Z" fill="black"/>
<path d="M331.858 24.6045C331.637 24.2051 331.08 24.2051 330.86 24.6045L324.954 35.2978C324.735 35.6941 325.011 36.1874 325.453 36.1874L337.264 36.1874C337.706 36.1874 337.982 35.6942 337.763 35.2978L331.858 24.6045Z" fill="black"/>
<path d="M357.782 24.6045C357.561 24.2051 357.004 24.2051 356.784 24.6045L350.878 35.2978C350.659 35.6941 350.935 36.1874 351.377 36.1874L363.188 36.1874C363.629 36.1874 363.906 35.6942 363.687 35.2978L357.782 24.6045Z" fill="black"/>
</svg>
