<svg width="400" height="39" viewBox="0 0 400 39" fill="none" xmlns="http://www.w3.org/2000/svg">
<path d="M97.8125 5.24851C97.8125 2.34984 100.162 0 103.061 0H114.433C114.916 0 115.308 0.39164 115.308 0.874751V12.2465C115.308 15.1452 112.958 17.495 110.059 17.495H98.6873C98.2041 17.495 97.8125 17.1034 97.8125 16.6203V5.24851Z" fill="black"/>
<path d="M118.49 25.9245C118.49 23.0258 120.84 20.676 123.739 20.676H135.111C135.594 20.676 135.985 21.0676 135.985 21.5507V32.9225C135.985 35.8212 133.635 38.171 130.737 38.171H119.365C118.882 38.171 118.49 37.7794 118.49 37.2962V25.9245Z" fill="black"/>
<path d="M139.164 25.9245C139.164 23.0258 141.514 20.676 144.413 20.676H155.784C156.267 20.676 156.659 21.0676 156.659 21.5507V32.9225C156.659 35.8212 154.309 38.171 151.411 38.171H140.039C139.556 38.171 139.164 37.7794 139.164 37.2962V25.9245Z" fill="black"/>
<path d="M80.3184 6.52087C80.3184 4.67626 81.8137 3.18091 83.6583 3.18091H90.8949C91.2023 3.18091 91.4516 3.43013 91.4516 3.73757V10.9741C91.4516 12.8188 89.9562 14.3141 88.1116 14.3141H80.875C80.5676 14.3141 80.3184 14.0649 80.3184 13.7574V6.52087Z" fill="black"/>
<path d="M59.6426 6.52087C59.6426 4.67626 61.1379 3.18091 62.9825 3.18091H70.2191C70.5266 3.18091 70.7758 3.43013 70.7758 3.73757V10.9741C70.7758 12.8188 69.2804 14.3141 67.4358 14.3141H60.1992C59.8918 14.3141 59.6426 14.0649 59.6426 13.7574V6.52087Z" fill="black"/>
<path d="M18.2891 6.52087C18.2891 4.67626 19.7844 3.18091 21.629 3.18091H28.8656C29.173 3.18091 29.4223 3.43013 29.4223 3.73757V10.9741C29.4223 12.8188 27.9269 14.3141 26.0823 14.3141H18.8457C18.5383 14.3141 18.2891 14.0649 18.2891 13.7574V6.52087Z" fill="black"/>
<path d="M100.994 27.1968C100.994 25.3522 102.489 23.8569 104.334 23.8569H111.571C111.878 23.8569 112.127 24.1061 112.127 24.4135V31.6501C112.127 33.4947 110.632 34.9901 108.787 34.9901H101.551C101.243 34.9901 100.994 34.7408 100.994 34.4334V27.1968Z" fill="black"/>
<path d="M80.3184 27.1968C80.3184 25.3522 81.8137 23.8569 83.6583 23.8569H90.8949C91.2023 23.8569 91.4516 24.1061 91.4516 24.4135V31.6501C91.4516 33.4947 89.9562 34.9901 88.1116 34.9901H80.875C80.5676 34.9901 80.3184 34.7408 80.3184 34.4334V27.1968Z" fill="black"/>
<path d="M38.9668 27.1968C38.9668 25.3522 40.4621 23.8569 42.3068 23.8569H49.5433C49.8508 23.8569 50.1 24.1061 50.1 24.4135V31.6501C50.1 33.4947 48.6046 34.9901 46.76 34.9901H39.5235C39.216 34.9901 38.9668 34.7408 38.9668 34.4334V27.1968Z" fill="black"/>
<path d="M41.3516 7.4752C41.3516 6.42114 42.206 5.56665 43.2601 5.56665H47.3953C47.571 5.56665 47.7134 5.70906 47.7134 5.88474V10.0199C47.7134 11.074 46.8589 11.9285 45.8048 11.9285H41.6697C41.494 11.9285 41.3516 11.7861 41.3516 11.6104V7.4752Z" fill="black"/>
<path d="M62.0273 28.1511C62.0273 27.097 62.8818 26.2426 63.9359 26.2426H68.0711C68.2468 26.2426 68.3892 26.385 68.3892 26.5606V30.6958C68.3892 31.7499 67.5347 32.6044 66.4806 32.6044H62.3454C62.1698 32.6044 62.0273 32.462 62.0273 32.2863V28.1511Z" fill="black"/>
<path d="M20.6758 28.1511C20.6758 27.097 21.5303 26.2426 22.5843 26.2426H26.7195C26.8952 26.2426 27.0376 26.385 27.0376 26.5606V30.6958C27.0376 31.7499 26.1831 32.6044 25.1291 32.6044H20.9939C20.8182 32.6044 20.6758 32.462 20.6758 32.2863V28.1511Z" fill="black"/>
<path d="M0 28.1511C0 27.097 0.854486 26.2426 1.90855 26.2426H6.04374C6.21941 26.2426 6.36183 26.385 6.36183 26.5606V30.6958C6.36183 31.7499 5.50734 32.6044 4.45328 32.6044H0.318092C0.142414 32.6044 0 32.462 0 32.2863V28.1511Z" fill="black"/>
<path d="M139.164 5.24851C139.164 2.34984 141.514 0 144.413 0H155.784C156.267 0 156.659 0.39164 156.659 0.874751V12.2465C156.659 15.1452 154.309 17.495 151.411 17.495H140.039C139.556 17.495 139.164 17.1034 139.164 16.6203V5.24851Z" fill="black"/>
<path d="M218.688 32.9225C218.688 35.8211 216.338 38.171 213.439 38.171H202.067C201.584 38.171 201.192 37.7793 201.192 37.2962V25.9244C201.192 23.0258 203.542 20.6759 206.441 20.6759H217.813C218.296 20.6759 218.688 21.0676 218.688 21.5507V32.9225Z" fill="black"/>
<path d="M198.012 12.2465C198.012 15.1452 195.662 17.495 192.763 17.495H181.391C180.908 17.495 180.517 17.1034 180.517 16.6202V5.24847C180.517 2.3498 182.867 -3.38554e-05 185.765 -3.38554e-05H197.137C197.62 -3.38554e-05 198.012 0.391606 198.012 0.874718V12.2465Z" fill="black"/>
<path d="M177.336 12.2465C177.336 15.1452 174.986 17.495 172.087 17.495H160.716C160.233 17.495 159.841 17.1034 159.841 16.6202V5.24847C159.841 2.3498 162.191 -3.38554e-05 165.089 -3.38554e-05H176.461C176.944 -3.38554e-05 177.336 0.391606 177.336 0.874718V12.2465Z" fill="black"/>
<path d="M236.182 31.6501C236.182 33.4947 234.686 34.9901 232.842 34.9901H225.605C225.298 34.9901 225.048 34.7408 225.048 34.4334V27.1968C225.048 25.3522 226.544 23.8569 228.388 23.8569H235.625C235.932 23.8569 236.182 24.1061 236.182 24.4135V31.6501Z" fill="black"/>
<path d="M194.832 31.6501C194.832 33.4947 193.337 34.9901 191.492 34.9901H184.255C183.948 34.9901 183.699 34.7408 183.699 34.4334V27.1968C183.699 25.3522 185.194 23.8569 187.039 23.8569H194.275C194.583 23.8569 194.832 24.1061 194.832 24.4135V31.6501Z" fill="black"/>
<path d="M256.859 31.6501C256.859 33.4947 255.364 34.9901 253.519 34.9901H246.283C245.975 34.9901 245.726 34.7408 245.726 34.4334V27.1968C245.726 25.3522 247.222 23.8569 249.066 23.8569H256.303C256.61 23.8569 256.859 24.1061 256.859 24.4135V31.6501Z" fill="black"/>
<path d="M215.508 10.9742C215.508 12.8188 214.012 14.3141 212.168 14.3141H204.931C204.624 14.3141 204.375 14.0649 204.375 13.7575V6.52091C204.375 4.6763 205.87 3.18095 207.715 3.18095H214.951C215.259 3.18095 215.508 3.43017 215.508 3.73761V10.9742Z" fill="black"/>
<path d="M236.182 10.9742C236.182 12.8188 234.686 14.3141 232.842 14.3141H225.605C225.298 14.3141 225.048 14.0649 225.048 13.7575V6.52091C225.048 4.6763 226.544 3.18095 228.388 3.18095H235.625C235.932 3.18095 236.182 3.43017 236.182 3.73761V10.9742Z" fill="black"/>
<path d="M275.148 30.6958C275.148 31.7499 274.294 32.6044 273.24 32.6044H269.105C268.929 32.6044 268.787 32.462 268.787 32.2863V28.1511C268.787 27.097 269.641 26.2425 270.695 26.2425H274.83C275.006 26.2425 275.148 26.385 275.148 26.5606V30.6958Z" fill="black"/>
<path d="M254.475 10.0199C254.475 11.074 253.62 11.9285 252.566 11.9285H248.431C248.255 11.9285 248.113 11.7861 248.113 11.6104V7.47519C248.113 6.42112 248.967 5.56664 250.021 5.56664H254.157C254.332 5.56664 254.475 5.70905 254.475 5.88473V10.0199Z" fill="black"/>
<path d="M275.148 10.0199C275.148 11.074 274.294 11.9285 273.24 11.9285H269.105C268.929 11.9285 268.787 11.7861 268.787 11.6104V7.47519C268.787 6.42112 269.641 5.56664 270.695 5.56664H274.83C275.006 5.56664 275.148 5.70905 275.148 5.88473V10.0199Z" fill="black"/>
<path d="M322.863 32.9225C322.863 35.8211 320.513 38.171 317.615 38.171H306.243C305.76 38.171 305.368 37.7793 305.368 37.2962V25.9244C305.368 23.0258 307.718 20.6759 310.617 20.6759H321.989C322.472 20.6759 322.863 21.0676 322.863 21.5507V32.9225Z" fill="black"/>
<path d="M340.357 31.6501C340.357 33.4947 338.862 34.9901 337.017 34.9901H329.781C329.473 34.9901 329.224 34.7408 329.224 34.4334V27.1968C329.224 25.3522 330.72 23.8569 332.564 23.8569H339.801C340.108 23.8569 340.357 24.1061 340.357 24.4135V31.6501Z" fill="black"/>
<path d="M299.006 31.6501C299.006 33.4947 297.511 34.9901 295.666 34.9901H288.429C288.122 34.9901 287.873 34.7408 287.873 34.4334V27.1968C287.873 25.3522 289.368 23.8569 291.213 23.8569H298.449C298.757 23.8569 299.006 24.1061 299.006 24.4135V31.6501Z" fill="black"/>
<path d="M361.033 31.6501C361.033 33.4947 359.538 34.9901 357.693 34.9901H350.457C350.149 34.9901 349.9 34.7408 349.9 34.4334V27.1968C349.9 25.3522 351.395 23.8569 353.24 23.8569H360.477C360.784 23.8569 361.033 24.1061 361.033 24.4135V31.6501Z" fill="black"/>
<path d="M319.682 10.9742C319.682 12.8188 318.186 14.3141 316.342 14.3141H309.105C308.798 14.3141 308.548 14.0649 308.548 13.7575V6.52091C308.548 4.6763 310.044 3.18095 311.888 3.18095H319.125C319.432 3.18095 319.682 3.43017 319.682 3.73761V10.9742Z" fill="black"/>
<path d="M340.357 10.9742C340.357 12.8188 338.862 14.3141 337.017 14.3141H329.781C329.473 14.3141 329.224 14.0649 329.224 13.7575V6.52091C329.224 4.6763 330.72 3.18095 332.564 3.18095H339.801C340.108 3.18095 340.357 3.43017 340.357 3.73761V10.9742Z" fill="black"/>
<path d="M379.324 30.6958C379.324 31.7499 378.47 32.6044 377.416 32.6044H373.28C373.105 32.6044 372.962 32.462 372.962 32.2863V28.1511C372.962 27.097 373.817 26.2425 374.871 26.2425H379.006C379.182 26.2425 379.324 26.385 379.324 26.5606V30.6958Z" fill="black"/>
<path d="M400 30.6958C400 31.7499 399.146 32.6044 398.091 32.6044H393.956C393.781 32.6044 393.638 32.462 393.638 32.2863V28.1511C393.638 27.097 394.493 26.2425 395.547 26.2425H399.682C399.858 26.2425 400 26.385 400 26.5606V30.6958Z" fill="black"/>
<path d="M358.648 10.0199C358.648 11.074 357.794 11.9285 356.74 11.9285H352.605C352.429 11.9285 352.287 11.7861 352.287 11.6104V7.47519C352.287 6.42112 353.141 5.56664 354.195 5.56664H358.33C358.506 5.56664 358.648 5.70905 358.648 5.88473V10.0199Z" fill="black"/>
<path d="M296.619 10.0199C296.619 11.074 295.765 11.9285 294.711 11.9285H290.575C290.4 11.9285 290.257 11.7861 290.257 11.6104V7.47519C290.257 6.42112 291.112 5.56664 292.166 5.56664H296.301C296.477 5.56664 296.619 5.70905 296.619 5.88473V10.0199Z" fill="black"/>
<path d="M379.324 10.0199C379.324 11.074 378.47 11.9285 377.416 11.9285H373.28C373.105 11.9285 372.962 11.7861 372.962 11.6104V7.47519C372.962 6.42112 373.817 5.56664 374.871 5.56664H379.006C379.182 5.56664 379.324 5.70905 379.324 5.88473V10.0199Z" fill="black"/>
<path d="M177.336 32.9225C177.336 35.8211 174.986 38.171 172.087 38.171H160.716C160.233 38.171 159.841 37.7793 159.841 37.2962V25.9244C159.841 23.0258 162.191 20.6759 165.089 20.6759H176.461C176.944 20.6759 177.336 21.0676 177.336 21.5507V32.9225Z" fill="black"/>
<path d="M122.465 6.52087C122.465 4.67626 123.96 3.18091 125.805 3.18091H133.041C133.349 3.18091 133.598 3.43013 133.598 3.73757V10.9741C133.598 12.8188 132.103 14.3141 130.258 14.3141H123.022C122.714 14.3141 122.465 14.0649 122.465 13.7574V6.52087Z" fill="black"/>
</svg>
