<svg width="400" height="38" viewBox="0 0 400 38" fill="none" xmlns="http://www.w3.org/2000/svg">
<path d="M110.039 4.01598C110.039 3.57238 110.399 3.21277 110.842 3.21277H128.513C128.957 3.21277 129.316 3.57238 129.316 4.01598V15.261C129.316 15.7046 128.957 16.0642 128.513 16.0642H110.842C110.399 16.0642 110.039 15.7046 110.039 15.261V4.01598Z" fill="black"/>
<path d="M144.58 -3.51096e-08C145.023 -1.57191e-08 145.383 0.359611 145.383 0.803214L145.383 18.4739C145.383 18.9175 145.023 19.2771 144.58 19.2771L133.335 19.2771C132.891 19.2771 132.531 18.9175 132.531 18.4739L132.531 0.803213C132.531 0.359611 132.891 -5.46034e-07 133.335 -5.26644e-07L144.58 -3.51096e-08Z" fill="black"/>
<path d="M148.594 4.01617C148.594 3.57256 148.953 3.21295 149.397 3.21295H167.068C167.511 3.21295 167.871 3.57256 167.871 4.01617V15.2612C167.871 15.7048 167.511 16.0644 167.068 16.0644H149.397C148.953 16.0644 148.594 15.7048 148.594 15.2612V4.01617Z" fill="black"/>
<path d="M73.8965 6.12457C73.8965 5.84732 74.1212 5.62256 74.3985 5.62256H85.4427C85.7199 5.62256 85.9447 5.84732 85.9447 6.12457V13.1527C85.9447 13.4299 85.7199 13.6547 85.4427 13.6547H74.3985C74.1212 13.6547 73.8965 13.4299 73.8965 13.1527V6.12457Z" fill="black"/>
<path d="M103.113 3.6145C103.39 3.6145 103.615 3.83926 103.615 4.11651L103.615 15.1607C103.615 15.4379 103.39 15.6627 103.113 15.6627L96.0851 15.6627C95.8079 15.6627 95.5831 15.4379 95.5831 15.1607L95.5831 4.11651C95.5831 3.83926 95.8079 3.6145 96.0851 3.6145L103.113 3.6145Z" fill="black"/>
<path d="M35.3418 7.53015C35.3418 7.3638 35.4916 7.22894 35.6765 7.22894H43.0393C43.2241 7.22894 43.3739 7.3638 43.3739 7.53015V11.747C43.3739 11.9134 43.2241 12.0482 43.0393 12.0482H35.6765C35.4916 12.0482 35.3418 11.9134 35.3418 11.747V7.53015Z" fill="black"/>
<path d="M0 7.53015C0 7.3638 0.149838 7.22894 0.334672 7.22894H7.69746C7.8823 7.22894 8.03214 7.3638 8.03214 7.53015V11.747C8.03214 11.9134 7.8823 12.0482 7.69746 12.0482H0.334672C0.149838 12.0482 0 11.9134 0 11.747V7.53015Z" fill="black"/>
<path d="M60.7418 5.62256C60.9081 5.62256 61.043 5.7724 61.043 5.95723L61.043 13.32C61.043 13.5049 60.9081 13.6547 60.7418 13.6547L56.5249 13.6547C56.3585 13.6547 56.2237 13.5049 56.2237 13.32L56.2237 5.95723C56.2237 5.7724 56.3585 5.62256 56.5249 5.62256L60.7418 5.62256Z" fill="black"/>
<path d="M23.7965 5.62256C23.9628 5.62256 24.0977 5.7724 24.0977 5.95723L24.0977 13.32C24.0977 13.5049 23.9628 13.6547 23.7965 13.6547L19.5796 13.6547C19.4132 13.6547 19.2784 13.5049 19.2784 13.32L19.2784 5.95723C19.2784 5.7724 19.4132 5.62256 19.5796 5.62256L23.7965 5.62256Z" fill="black"/>
<path d="M206.424 4.01598C206.424 3.57238 206.064 3.21277 205.621 3.21277H187.95C187.506 3.21277 187.147 3.57238 187.147 4.01598V15.261C187.147 15.7046 187.506 16.0642 187.95 16.0642H205.621C206.064 16.0642 206.424 15.7046 206.424 15.261V4.01598Z" fill="black"/>
<path d="M171.887 -3.51096e-08C171.444 -1.57191e-08 171.084 0.359611 171.084 0.803214L171.084 18.4739C171.084 18.9175 171.444 19.2771 171.887 19.2771L183.132 19.2771C183.576 19.2771 183.935 18.9175 183.935 18.4739L183.935 0.803213C183.935 0.359611 183.576 -5.46034e-07 183.132 -5.26644e-07L171.887 -3.51096e-08Z" fill="black"/>
<path d="M242.568 6.12457C242.568 5.84732 242.344 5.62256 242.066 5.62256H231.022C230.745 5.62256 230.52 5.84732 230.52 6.12457V13.1527C230.52 13.4299 230.745 13.6547 231.022 13.6547H242.066C242.344 13.6547 242.568 13.4299 242.568 13.1527V6.12457Z" fill="black"/>
<path d="M213.352 3.6145C213.074 3.6145 212.85 3.83926 212.85 4.11651L212.85 15.1607C212.85 15.4379 213.074 15.6627 213.352 15.6627L220.38 15.6627C220.657 15.6627 220.882 15.4379 220.882 15.1607L220.882 4.11651C220.882 3.83926 220.657 3.6145 220.38 3.6145L213.352 3.6145Z" fill="black"/>
<path d="M281.123 7.53015C281.123 7.3638 280.973 7.22894 280.788 7.22894H273.426C273.241 7.22894 273.091 7.3638 273.091 7.53015V11.747C273.091 11.9134 273.241 12.0482 273.426 12.0482H280.788C280.973 12.0482 281.123 11.9134 281.123 11.747V7.53015Z" fill="black"/>
<path d="M255.721 5.62256C255.555 5.62256 255.42 5.7724 255.42 5.95723L255.42 13.32C255.42 13.5049 255.555 13.6547 255.721 13.6547L259.938 13.6547C260.104 13.6547 260.239 13.5049 260.239 13.32L260.239 5.95723C260.239 5.7724 260.104 5.62256 259.938 5.62256L255.721 5.62256Z" fill="black"/>
<path d="M90.7637 22.4899C90.7637 22.0463 91.1233 21.6867 91.5669 21.6867H109.238C109.681 21.6867 110.041 22.0463 110.041 22.4899V33.7349C110.041 34.1785 109.681 34.5381 109.238 34.5381H91.5669C91.1233 34.5381 90.7637 34.1785 90.7637 33.7349V22.4899Z" fill="black"/>
<path d="M125.302 18.4739C125.746 18.4739 126.105 18.8335 126.105 19.2772L126.105 36.9478C126.105 37.3915 125.746 37.7511 125.302 37.7511L114.057 37.7511C113.614 37.7511 113.254 37.3915 113.254 36.9478L113.254 19.2772C113.254 18.8335 113.614 18.4739 114.057 18.4739L125.302 18.4739Z" fill="black"/>
<path d="M129.316 22.4901C129.316 22.0465 129.676 21.6869 130.12 21.6869H147.79C148.234 21.6869 148.594 22.0465 148.594 22.4901V33.7351C148.594 34.1787 148.234 34.5383 147.79 34.5383H130.12C129.676 34.5383 129.316 34.1787 129.316 33.7351V22.4901Z" fill="black"/>
<path d="M54.6191 24.5985C54.6191 24.3213 54.8439 24.0965 55.1211 24.0965H66.1653C66.4426 24.0965 66.6673 24.3213 66.6673 24.5985V31.6266C66.6673 31.9039 66.4426 32.1286 66.1653 32.1286H55.1211C54.8439 32.1286 54.6191 31.9039 54.6191 31.6266V24.5985Z" fill="black"/>
<path d="M15.2617 24.5985C15.2617 24.3213 15.4865 24.0965 15.7637 24.0965H26.8079C27.0852 24.0965 27.3099 24.3213 27.3099 24.5985V31.6266C27.3099 31.9039 27.0852 32.1286 26.8079 32.1286H15.7637C15.4865 32.1286 15.2617 31.9039 15.2617 31.6266V24.5985Z" fill="black"/>
<path d="M83.8359 22.0885C84.1131 22.0885 84.3379 22.3133 84.3379 22.5905L84.3379 33.6347C84.3379 33.9119 84.1131 34.1367 83.8359 34.1367L76.8078 34.1367C76.5305 34.1367 76.3058 33.9119 76.3058 33.6347L76.3058 22.5905C76.3058 22.3133 76.5305 22.0885 76.8078 22.0885L83.8359 22.0885Z" fill="black"/>
<path d="M41.4664 24.0965C41.6327 24.0965 41.7676 24.2463 41.7676 24.4312L41.7676 31.794C41.7676 31.9788 41.6327 32.1286 41.4664 32.1286L37.2495 32.1286C37.0832 32.1286 36.9483 31.9788 36.9483 31.794L36.9483 24.4312C36.9483 24.2463 37.0832 24.0965 37.2495 24.0965L41.4664 24.0965Z" fill="black"/>
<path d="M187.15 22.4899C187.15 22.0463 186.791 21.6867 186.347 21.6867H168.676C168.233 21.6867 167.873 22.0463 167.873 22.4899V33.7349C167.873 34.1785 168.233 34.5381 168.676 34.5381H186.347C186.791 34.5381 187.15 34.1785 187.15 33.7349V22.4899Z" fill="black"/>
<path d="M225.703 22.4899C225.703 22.0463 225.344 21.6867 224.9 21.6867H207.229C206.786 21.6867 206.426 22.0463 206.426 22.4899V33.7349C206.426 34.1785 206.786 34.5381 207.229 34.5381H224.9C225.344 34.5381 225.703 34.1785 225.703 33.7349V22.4899Z" fill="black"/>
<path d="M152.612 18.4739C152.168 18.4739 151.809 18.8335 151.809 19.2772L151.809 36.9478C151.809 37.3915 152.168 37.7511 152.612 37.7511L163.857 37.7511C164.3 37.7511 164.66 37.3915 164.66 36.9478L164.66 19.2772C164.66 18.8335 164.3 18.4739 163.857 18.4739L152.612 18.4739Z" fill="black"/>
<path d="M191.166 18.4739C190.723 18.4739 190.363 18.8335 190.363 19.2772L190.363 36.9478C190.363 37.3915 190.723 37.7511 191.166 37.7511L202.411 37.7511C202.855 37.7511 203.215 37.3915 203.215 36.9478L203.215 19.2772C203.215 18.8335 202.855 18.4739 202.411 18.4739L191.166 18.4739Z" fill="black"/>
<path d="M261.85 24.5985C261.85 24.3213 261.625 24.0965 261.348 24.0965H250.303C250.026 24.0965 249.801 24.3213 249.801 24.5985V31.6266C249.801 31.9039 250.026 32.1286 250.303 32.1286H261.348C261.625 32.1286 261.85 31.9039 261.85 31.6266V24.5985Z" fill="black"/>
<path d="M232.633 22.0885C232.356 22.0885 232.131 22.3133 232.131 22.5905L232.131 33.6347C232.131 33.9119 232.356 34.1367 232.633 34.1367L239.661 34.1367C239.938 34.1367 240.163 33.9119 240.163 33.6347L240.163 22.5905C240.163 22.3133 239.938 22.0885 239.661 22.0885L232.633 22.0885Z" fill="black"/>
<path d="M275.002 24.0965C274.836 24.0965 274.701 24.2463 274.701 24.4312L274.701 31.794C274.701 31.9788 274.836 32.1286 275.002 32.1286L279.219 32.1286C279.386 32.1286 279.52 31.9788 279.52 31.794L279.52 24.4312C279.52 24.2463 279.386 24.0965 279.219 24.0965L275.002 24.0965Z" fill="black"/>
<path d="M311.645 6.12444C311.645 5.84719 311.869 5.62244 312.147 5.62244H323.191C323.468 5.62244 323.693 5.84719 323.693 6.12444V13.1526C323.693 13.4298 323.468 13.6546 323.191 13.6546H312.147C311.869 13.6546 311.645 13.4298 311.645 13.1526V6.12444Z" fill="black"/>
<path d="M340.861 3.61444C341.139 3.61444 341.363 3.8392 341.363 4.11645L341.363 15.1606C341.363 15.4379 341.139 15.6626 340.861 15.6626L333.833 15.6626C333.556 15.6626 333.331 15.4379 333.331 15.1606L333.331 4.11645C333.331 3.8392 333.556 3.61444 333.833 3.61444L340.861 3.61444Z" fill="black"/>
<path d="M298.492 5.6225C298.658 5.6225 298.793 5.77234 298.793 5.95717L298.793 13.32C298.793 13.5048 298.658 13.6546 298.492 13.6546L294.275 13.6546C294.109 13.6546 293.974 13.5048 293.974 13.32L293.974 5.95717C293.974 5.77234 294.109 5.6225 294.275 5.6225L298.492 5.6225Z" fill="black"/>
<path d="M361.445 6.12451C361.445 5.84725 361.221 5.6225 360.943 5.6225H349.899C349.622 5.6225 349.397 5.84725 349.397 6.12451V13.1526C349.397 13.4299 349.622 13.6546 349.899 13.6546H360.943C361.221 13.6546 361.445 13.4299 361.445 13.1526V6.12451Z" fill="black"/>
<path d="M374.598 5.6225C374.432 5.6225 374.297 5.77234 374.297 5.95717L374.297 13.32C374.297 13.5048 374.432 13.6546 374.598 13.6546L378.815 13.6546C378.981 13.6546 379.116 13.5048 379.116 13.32L379.116 5.95717C379.116 5.77234 378.981 5.6225 378.815 5.6225L374.598 5.6225Z" fill="black"/>
<path d="M292.367 24.5986C292.367 24.3213 292.592 24.0966 292.869 24.0966H303.913C304.191 24.0966 304.415 24.3213 304.415 24.5986V31.6267C304.415 31.9039 304.191 32.1287 303.913 32.1287H292.869C292.592 32.1287 292.367 31.9039 292.367 31.6267V24.5986Z" fill="black"/>
<path d="M321.584 22.0885C321.861 22.0885 322.086 22.3133 322.086 22.5905L322.086 33.6347C322.086 33.9119 321.861 34.1367 321.584 34.1367L314.556 34.1367C314.279 34.1367 314.054 33.9119 314.054 33.6347L314.054 22.5905C314.054 22.3133 314.279 22.0885 314.556 22.0885L321.584 22.0885Z" fill="black"/>
<path d="M343.773 24.5984C343.773 24.3212 343.549 24.0964 343.271 24.0964H332.227C331.95 24.0964 331.725 24.3212 331.725 24.5984V31.6266C331.725 31.9038 331.95 32.1286 332.227 32.1286H343.271C343.549 32.1286 343.773 31.9038 343.773 31.6266V24.5984Z" fill="black"/>
<path d="M382.328 26.004C382.328 25.8377 382.178 25.7028 381.993 25.7028H374.631C374.446 25.7028 374.296 25.8377 374.296 26.004V30.2209C374.296 30.3872 374.446 30.5221 374.631 30.5221H381.993C382.178 30.5221 382.328 30.3872 382.328 30.2209V26.004Z" fill="black"/>
<path d="M356.926 24.0964C356.76 24.0964 356.625 24.2463 356.625 24.4311L356.625 31.7939C356.625 31.9787 356.76 32.1286 356.926 32.1286L361.143 32.1286C361.309 32.1286 361.444 31.9787 361.444 31.7939L361.444 24.4311C361.444 24.2463 361.309 24.0964 361.143 24.0964L356.926 24.0964Z" fill="black"/>
<path d="M395.481 24.0964C395.315 24.0964 395.18 24.2463 395.18 24.4311L395.18 31.7939C395.18 31.9787 395.315 32.1286 395.481 32.1286L399.698 32.1286C399.864 32.1286 399.999 31.9787 399.999 31.7939L399.999 24.4311C399.999 24.2463 399.864 24.0964 399.698 24.0964L395.481 24.0964Z" fill="black"/>
</svg>
