<svg width="400" height="43" viewBox="0 0 400 43" fill="none" xmlns="http://www.w3.org/2000/svg">
<circle cx="154.471" cy="9.7561" r="9.7561" fill="black"/>
<circle cx="110.569" cy="32.5203" r="9.7561" fill="black"/>
<circle cx="132.52" cy="9.7561" r="9.7561" fill="black"/>
<circle cx="154.471" cy="32.5203" r="9.7561" fill="black"/>
<circle cx="110.569" cy="9.75608" r="6.50407" fill="black"/>
<circle cx="69.1056" cy="32.5204" r="6.50407" fill="black"/>
<circle cx="25.2033" cy="32.5204" r="6.50407" fill="black"/>
<circle cx="91.0568" cy="32.5204" r="6.50407" fill="black"/>
<circle cx="132.52" cy="32.5204" r="6.50407" fill="black"/>
<circle cx="91.0568" cy="9.75608" r="6.50407" fill="black"/>
<circle cx="47.1545" cy="9.75608" r="6.50407" fill="black"/>
<circle cx="69.1055" cy="9.75612" r="3.25203" fill="black"/>
<circle cx="47.1544" cy="32.5203" r="3.25203" fill="black"/>
<circle cx="25.2032" cy="9.75612" r="3.25203" fill="black"/>
<circle cx="3.25203" cy="32.5203" r="3.25203" fill="black"/>
<circle r="9.7561" transform="matrix(-1 0 0 1 176.424 9.7561)" fill="black"/>
<circle r="9.7561" transform="matrix(-1 0 0 1 220.326 32.5203)" fill="black"/>
<circle r="9.7561" transform="matrix(-1 0 0 1 330.894 32.5203)" fill="black"/>
<circle r="9.7561" transform="matrix(-1 0 0 1 220.326 9.7561)" fill="black"/>
<circle r="9.7561" transform="matrix(-1 0 0 1 198.375 32.5203)" fill="black"/>
<circle r="9.7561" transform="matrix(-1 0 0 1 176.424 32.5203)" fill="black"/>
<circle r="6.50407" transform="matrix(-1 0 0 1 198.375 9.75608)" fill="black"/>
<circle r="6.50407" transform="matrix(-1 0 0 1 261.789 32.5204)" fill="black"/>
<circle r="6.50407" transform="matrix(-1 0 0 1 239.838 32.5204)" fill="black"/>
<circle r="6.50407" transform="matrix(-1 0 0 1 239.838 9.75608)" fill="black"/>
<circle r="6.50407" transform="matrix(-1 0 0 1 305.691 9.75608)" fill="black"/>
<circle r="3.25203" transform="matrix(-1 0 0 1 261.787 9.75612)" fill="black"/>
<circle r="3.25203" transform="matrix(-1 0 0 1 283.74 32.5203)" fill="black"/>
<circle r="3.25203" transform="matrix(-1 0 0 1 283.74 9.75612)" fill="black"/>
<circle r="6.50407" transform="matrix(-1 0 0 1 352.846 32.5204)" fill="black"/>
<circle r="6.50407" transform="matrix(-1 0 0 1 305.691 32.5204)" fill="black"/>
<circle r="6.50407" transform="matrix(-1 0 0 1 330.894 9.75608)" fill="black"/>
<circle r="3.25203" transform="matrix(-1 0 0 1 352.846 9.75612)" fill="black"/>
<circle r="3.25203" transform="matrix(-1 0 0 1 396.748 9.75612)" fill="black"/>
<circle r="3.25203" transform="matrix(-1 0 0 1 374.797 32.5203)" fill="black"/>
<circle r="3.25203" transform="matrix(-1 0 0 1 374.797 9.75612)" fill="black"/>
</svg>
