<svg width="400" height="34" viewBox="0 0 400 34" fill="none" xmlns="http://www.w3.org/2000/svg">
<path d="M181.156 0.078192C180.931 -0.0260619 180.666 -0.0260641 180.441 0.0781861L171.641 4.15159C171.37 4.27704 171.198 4.53349 171.198 4.81402V12.786C171.198 13.0665 171.37 13.3229 171.641 13.4484L180.441 17.5218C180.666 17.626 180.931 17.626 181.156 17.5218L189.956 13.4484C190.227 13.3229 190.398 13.0665 190.398 12.786V4.81401C190.398 4.53349 190.227 4.27704 189.956 4.15158L181.156 0.078192Z" fill="black"/>
<path d="M203.559 0.078192C203.334 -0.0260619 203.068 -0.0260641 202.843 0.0781861L194.043 4.15159C193.772 4.27704 193.601 4.53349 193.601 4.81402V12.786C193.601 13.0665 193.772 13.3229 194.043 13.4484L202.843 17.5218C203.068 17.626 203.334 17.626 203.559 17.5218L212.359 13.4484C212.63 13.3229 212.801 13.0665 212.801 12.786V4.81401C212.801 4.53349 212.63 4.27704 212.359 4.15158L203.559 0.078192Z" fill="black"/>
<path d="M192.358 16.0782C192.132 15.9739 191.867 15.9739 191.642 16.0782L182.842 20.1516C182.571 20.277 182.4 20.5335 182.4 20.814V28.786C182.4 29.0665 182.571 29.3229 182.842 29.4484L191.642 33.5218C191.867 33.626 192.132 33.626 192.358 33.5218L201.157 29.4484C201.428 29.3229 201.6 29.0665 201.6 28.786V20.814C201.6 20.5335 201.428 20.277 201.157 20.1516L192.358 16.0782Z" fill="black"/>
<path d="M169.957 16.0782C169.732 15.9739 169.467 15.9739 169.242 16.0782L160.441 20.1516C160.17 20.277 159.999 20.5335 159.999 20.814V28.786C159.999 29.0665 160.17 29.3229 160.441 29.4484L169.242 33.5218C169.467 33.626 169.732 33.626 169.957 33.5218L178.757 29.4484C179.028 29.3229 179.199 29.0665 179.199 28.786V20.814C179.199 20.5335 179.028 20.277 178.757 20.1516L169.957 16.0782Z" fill="black"/>
<path d="M245.038 3.24977C244.888 3.18343 244.711 3.18343 244.561 3.24977L238.694 5.84193C238.513 5.92177 238.399 6.08496 238.399 6.26348V11.3365C238.399 11.5151 238.513 11.6782 238.694 11.7581L244.561 14.3502C244.711 14.4166 244.888 14.4166 245.038 14.3502L250.904 11.7581C251.085 11.6782 251.199 11.5151 251.199 11.3365V6.26347C251.199 6.08496 251.085 5.92176 250.904 5.84193L245.038 3.24977Z" fill="black"/>
<path d="M222.639 3.24977C222.489 3.18343 222.313 3.18343 222.162 3.24977L216.296 5.84193C216.115 5.92177 216.001 6.08496 216.001 6.26348V11.3365C216.001 11.5151 216.115 11.6782 216.296 11.7581L222.162 14.3502C222.313 14.4166 222.489 14.4166 222.639 14.3502L228.506 11.7581C228.687 11.6782 228.801 11.5151 228.801 11.3365V6.26347C228.801 6.08496 228.687 5.92176 228.506 5.84193L222.639 3.24977Z" fill="black"/>
<path d="M256.237 19.2497C256.087 19.1834 255.91 19.1834 255.76 19.2497L249.893 21.8419C249.713 21.9217 249.598 22.0849 249.598 22.2634V27.3365C249.598 27.515 249.713 27.6782 249.893 27.758L255.76 30.3502C255.91 30.4165 256.087 30.4165 256.237 30.3502L262.104 27.758C262.284 27.6782 262.398 27.515 262.398 27.3365V22.2634C262.398 22.0849 262.284 21.9217 262.104 21.8419L256.237 19.2497Z" fill="black"/>
<path d="M233.839 19.2497C233.689 19.1834 233.512 19.1834 233.362 19.2497L227.495 21.8419C227.314 21.9217 227.2 22.0849 227.2 22.2634V27.3365C227.2 27.515 227.314 27.6782 227.495 27.758L233.362 30.3502C233.512 30.4165 233.689 30.4165 233.839 30.3502L239.705 27.758C239.886 27.6782 240 27.515 240 27.3365V22.2634C240 22.0849 239.886 21.9217 239.705 21.8419L233.839 19.2497Z" fill="black"/>
<path d="M213.038 19.2497C212.888 19.1834 212.711 19.1834 212.561 19.2497L206.694 21.8419C206.513 21.9217 206.399 22.0849 206.399 22.2634V27.3365C206.399 27.515 206.513 27.6782 206.694 27.758L212.561 30.3502C212.711 30.4165 212.888 30.4165 213.038 30.3502L218.904 27.758C219.085 27.6782 219.199 27.515 219.199 27.3365V22.2634C219.199 22.0849 219.085 21.9217 218.904 21.8419L213.038 19.2497Z" fill="black"/>
<path d="M288.119 5.62485C288.043 5.59168 287.955 5.59168 287.88 5.62485L284.947 6.92094C284.856 6.96085 284.799 7.04245 284.799 7.13171V9.66824C284.799 9.7575 284.856 9.83909 284.947 9.87901L287.88 11.1751C287.955 11.2083 288.043 11.2083 288.119 11.1751L291.052 9.87901C291.142 9.83909 291.199 9.7575 291.199 9.66824V7.13171C291.199 7.04245 291.142 6.96085 291.052 6.92093L288.119 5.62485Z" fill="black"/>
<path d="M299.318 21.6249C299.243 21.5917 299.154 21.5917 299.079 21.6249L296.146 22.9209C296.056 22.9609 295.998 23.0424 295.998 23.1317V25.6682C295.998 25.7575 296.056 25.8391 296.146 25.879L299.079 27.1751C299.154 27.2083 299.243 27.2083 299.318 27.1751L302.251 25.879C302.341 25.8391 302.398 25.7575 302.398 25.6682V23.1317C302.398 23.0424 302.341 22.9609 302.251 22.9209L299.318 21.6249Z" fill="black"/>
<path d="M276.919 21.6249C276.844 21.5917 276.756 21.5917 276.681 21.6249L273.747 22.9209C273.657 22.9609 273.6 23.0424 273.6 23.1317V25.6682C273.6 25.7575 273.657 25.8391 273.747 25.879L276.681 27.1751C276.756 27.2083 276.844 27.2083 276.919 27.1751L279.853 25.879C279.943 25.8391 280 25.7575 280 25.6682V23.1317C280 23.0424 279.943 22.9609 279.853 22.9209L276.919 21.6249Z" fill="black"/>
<path d="M265.72 11.1751C265.645 11.2083 265.557 11.2083 265.482 11.1751L262.548 9.87905C262.458 9.83914 262.401 9.75754 262.401 9.66828V7.13175C262.401 7.04249 262.458 6.96089 262.548 6.92098L265.482 5.62489C265.557 5.59172 265.645 5.59172 265.72 5.6249L268.653 6.92098C268.744 6.96089 268.801 7.04249 268.801 7.13175V9.66828C268.801 9.75754 268.744 9.83914 268.653 9.87905L265.72 11.1751Z" fill="black"/>
<path d="M135.64 0.078192C135.866 -0.0260619 136.131 -0.0260641 136.356 0.0781861L145.156 4.15159C145.427 4.27704 145.598 4.53349 145.598 4.81402V12.786C145.598 13.0665 145.427 13.3229 145.156 13.4484L136.356 17.5218C136.131 17.626 135.866 17.626 135.64 17.5218L126.841 13.4484C126.57 13.3229 126.398 13.0665 126.398 12.786V4.81401C126.398 4.53349 126.57 4.27704 126.841 4.15158L135.64 0.078192Z" fill="black"/>
<path d="M113.242 0.078192C113.467 -0.0260619 113.732 -0.0260641 113.958 0.0781861L122.758 4.15159C123.029 4.27704 123.2 4.53349 123.2 4.81402V12.786C123.2 13.0665 123.029 13.3229 122.758 13.4484L113.958 17.5218C113.732 17.626 113.467 17.626 113.242 17.5218L104.442 13.4484C104.171 13.3229 104 13.0665 104 12.786V4.81401C104 4.53349 104.171 4.27704 104.442 4.15158L113.242 0.078192Z" fill="black"/>
<path d="M158.043 0.078192C158.268 -0.0260619 158.533 -0.0260641 158.758 0.0781861L167.559 4.15159C167.83 4.27704 168.001 4.53349 168.001 4.81402V12.786C168.001 13.0665 167.83 13.3229 167.559 13.4484L158.758 17.5218C158.533 17.626 158.268 17.626 158.043 17.5218L149.243 13.4484C148.972 13.3229 148.801 13.0665 148.801 12.786V4.81401C148.801 4.53349 148.972 4.27704 149.243 4.15158L158.043 0.078192Z" fill="black"/>
<path d="M124.441 16.0782C124.666 15.9739 124.932 15.9739 125.157 16.0782L133.957 20.1516C134.228 20.277 134.399 20.5335 134.399 20.814V28.786C134.399 29.0665 134.228 29.3229 133.957 29.4484L125.157 33.5218C124.932 33.626 124.666 33.626 124.441 33.5218L115.641 29.4484C115.37 29.3229 115.199 29.0665 115.199 28.786V20.814C115.199 20.5335 115.37 20.277 115.641 20.1516L124.441 16.0782Z" fill="black"/>
<path d="M146.842 16.0782C147.067 15.9739 147.332 15.9739 147.557 16.0782L156.357 20.1516C156.628 20.277 156.8 20.5335 156.8 20.814V28.786C156.8 29.0665 156.628 29.3229 156.357 29.4484L147.557 33.5218C147.332 33.626 147.067 33.626 146.842 33.5218L138.042 29.4484C137.771 29.3229 137.6 29.0665 137.6 28.786V20.814C137.6 20.5335 137.771 20.277 138.042 20.1516L146.842 16.0782Z" fill="black"/>
<path d="M71.7629 3.24977C71.913 3.18343 72.0898 3.18343 72.2399 3.24977L78.1067 5.84193C78.2874 5.92177 78.4016 6.08496 78.4016 6.26348V11.3365C78.4016 11.5151 78.2874 11.6782 78.1067 11.7581L72.2399 14.3502C72.0898 14.4166 71.913 14.4166 71.7629 14.3502L65.8964 11.7581C65.7157 11.6782 65.6016 11.5151 65.6016 11.3365V6.26347C65.6016 6.08496 65.7157 5.92176 65.8964 5.84193L71.7629 3.24977Z" fill="black"/>
<path d="M30.1613 3.24977C30.3115 3.18343 30.4882 3.18343 30.6384 3.24977L36.5052 5.84193C36.6859 5.92177 36.8 6.08496 36.8 6.26348V11.3365C36.8 11.5151 36.6859 11.6782 36.5052 11.7581L30.6384 14.3502C30.4882 14.4166 30.3115 14.4166 30.1613 14.3502L24.2948 11.7581C24.1141 11.6782 24 11.5151 24 11.3365V6.26347C24 6.08496 24.1141 5.92176 24.2948 5.84193L30.1613 3.24977Z" fill="black"/>
<path d="M94.1613 3.24977C94.3115 3.18343 94.4882 3.18343 94.6384 3.24977L100.505 5.84193C100.686 5.92177 100.8 6.08496 100.8 6.26348V11.3365C100.8 11.5151 100.686 11.6782 100.505 11.7581L94.6384 14.3502C94.4882 14.4166 94.3115 14.4166 94.1613 14.3502L88.2948 11.7581C88.1141 11.6782 88 11.5151 88 11.3365V6.26347C88 6.08496 88.1141 5.92176 88.2948 5.84193L94.1613 3.24977Z" fill="black"/>
<path d="M60.5598 19.2497C60.7099 19.1834 60.8867 19.1834 61.0368 19.2497L66.9036 21.8419C67.0843 21.9217 67.1984 22.0849 67.1984 22.2634V27.3365C67.1984 27.515 67.0843 27.6782 66.9036 27.758L61.0368 30.3502C60.8867 30.4165 60.7099 30.4165 60.5598 30.3502L54.6933 27.758C54.5126 27.6782 54.3984 27.515 54.3984 27.3365V22.2634C54.3984 22.0849 54.5126 21.9217 54.6933 21.8419L60.5598 19.2497Z" fill="black"/>
<path d="M82.9621 19.2497C83.1123 19.1834 83.289 19.1834 83.4391 19.2497L89.3059 21.8419C89.4866 21.9217 89.6008 22.0849 89.6008 22.2634V27.3365C89.6008 27.515 89.4866 27.6782 89.3059 27.758L83.4391 30.3502C83.289 30.4165 83.1123 30.4165 82.9621 30.3502L77.0956 27.758C76.9149 27.6782 76.8008 27.515 76.8008 27.3365V22.2634C76.8008 22.0849 76.9149 21.9217 77.0956 21.8419L82.9621 19.2497Z" fill="black"/>
<path d="M103.763 19.2497C103.913 19.1834 104.09 19.1834 104.24 19.2497L110.107 21.8419C110.287 21.9217 110.402 22.0849 110.402 22.2634V27.3365C110.402 27.515 110.287 27.6782 110.107 27.758L104.24 30.3502C104.09 30.4165 103.913 30.4165 103.763 30.3502L97.8964 27.758C97.7157 27.6782 97.6016 27.515 97.6016 27.3365V22.2634C97.6016 22.0849 97.7157 21.9217 97.8964 21.8419L103.763 19.2497Z" fill="black"/>
<path d="M39.8814 21.6249C39.9565 21.5917 40.0449 21.5917 40.12 21.6249L43.0534 22.9209C43.1437 22.9609 43.2008 23.0424 43.2008 23.1317V25.6682C43.2008 25.7575 43.1437 25.8391 43.0534 25.879L40.12 27.1751C40.0449 27.2083 39.9565 27.2083 39.8814 27.1751L36.9482 25.879C36.8578 25.8391 36.8008 25.7575 36.8008 25.6682V23.1317C36.8008 23.0424 36.8578 22.9609 36.9482 22.9209L39.8814 21.6249Z" fill="black"/>
<path d="M17.4791 21.6249C17.5542 21.5917 17.6425 21.5917 17.7176 21.6249L20.651 22.9209C20.7414 22.9609 20.7984 23.0424 20.7984 23.1317V25.6682C20.7984 25.7575 20.7414 25.8391 20.651 25.879L17.7176 27.1751C17.6425 27.2083 17.5542 27.2083 17.4791 27.1751L14.5458 25.879C14.4555 25.8391 14.3984 25.7575 14.3984 25.6682V23.1317C14.3984 23.0424 14.4555 22.9609 14.5458 22.9209L17.4791 21.6249Z" fill="black"/>
<path d="M51.0807 11.1751C51.1557 11.2083 51.2441 11.2083 51.3192 11.1751L54.2526 9.87905C54.3429 9.83914 54.4 9.75754 54.4 9.66828V7.13175C54.4 7.04249 54.3429 6.96089 54.2526 6.92098L51.3192 5.62489C51.2441 5.59172 51.1557 5.59172 51.0807 5.6249L48.1474 6.92098C48.0571 6.96089 48 7.04249 48 7.13175V9.66828C48 9.75754 48.0571 9.83914 48.1474 9.87905L51.0807 11.1751Z" fill="black"/>
<path d="M3.08067 11.1751C3.15574 11.2083 3.24411 11.2083 3.31918 11.1751L6.25258 9.87905C6.34293 9.83914 6.39999 9.75754 6.39999 9.66828V7.13175C6.39999 7.04249 6.34293 6.96089 6.25258 6.92098L3.31918 5.62489C3.24411 5.59172 3.15574 5.59172 3.08067 5.6249L0.147407 6.92098C0.0570662 6.96089 0 7.04249 0 7.13175V9.66828C0 9.75754 0.0570663 9.83914 0.147407 9.87905L3.08067 11.1751Z" fill="black"/>
<path d="M396.919 5.62485C396.844 5.59168 396.756 5.59168 396.681 5.62485L393.747 6.92094C393.657 6.96085 393.6 7.04245 393.6 7.13171V9.66824C393.6 9.7575 393.657 9.83909 393.747 9.87901L396.681 11.1751C396.756 11.2083 396.844 11.2083 396.919 11.1751L399.853 9.87901C399.943 9.83909 400 9.7575 400 9.66824V7.13171C400 7.04245 399.943 6.96085 399.853 6.92093L396.919 5.62485Z" fill="black"/>
<path d="M372.919 5.62485C372.844 5.59168 372.756 5.59168 372.681 5.62485L369.747 6.92094C369.657 6.96085 369.6 7.04245 369.6 7.13171V9.66824C369.6 9.7575 369.657 9.83909 369.747 9.87901L372.681 11.1751C372.756 11.2083 372.844 11.2083 372.919 11.1751L375.853 9.87901C375.943 9.83909 376 9.7575 376 9.66824V7.13171C376 7.04245 375.943 6.96085 375.853 6.92093L372.919 5.62485Z" fill="black"/>
<path d="M385.72 21.6249C385.645 21.5917 385.557 21.5917 385.482 21.6249L382.548 22.9209C382.458 22.9609 382.401 23.0424 382.401 23.1317V25.6682C382.401 25.7575 382.458 25.8391 382.548 25.879L385.482 27.1751C385.557 27.2083 385.645 27.2083 385.72 27.1751L388.653 25.879C388.744 25.8391 388.801 25.7575 388.801 25.6682V23.1317C388.801 23.0424 388.744 22.9609 388.653 22.9209L385.72 21.6249Z" fill="black"/>
<path d="M330.962 3.24974C331.112 3.1834 331.289 3.1834 331.439 3.24974L337.306 5.8419C337.487 5.92173 337.601 6.08493 337.601 6.26345V11.3365C337.601 11.515 337.487 11.6782 337.306 11.7581L331.439 14.3502C331.289 14.4166 331.112 14.4166 330.962 14.3502L325.096 11.7581C324.915 11.6782 324.801 11.515 324.801 11.3365V6.26344C324.801 6.08493 324.915 5.92173 325.096 5.8419L330.962 3.24974Z" fill="black"/>
<path d="M353.361 3.24974C353.511 3.1834 353.687 3.1834 353.838 3.24974L359.704 5.8419C359.885 5.92173 359.999 6.08493 359.999 6.26345V11.3365C359.999 11.515 359.885 11.6782 359.704 11.7581L353.838 14.3502C353.687 14.4166 353.511 14.4166 353.361 14.3502L347.494 11.7581C347.313 11.6782 347.199 11.515 347.199 11.3365V6.26344C347.199 6.08493 347.313 5.92173 347.494 5.8419L353.361 3.24974Z" fill="black"/>
<path d="M319.759 19.2497C319.909 19.1834 320.086 19.1834 320.236 19.2497L326.103 21.8419C326.284 21.9217 326.398 22.0849 326.398 22.2634V27.3365C326.398 27.515 326.284 27.6782 326.103 27.758L320.236 30.3502C320.086 30.4165 319.909 30.4165 319.759 30.3502L313.892 27.758C313.712 27.6782 313.598 27.515 313.598 27.3365V22.2634C313.598 22.0849 313.712 21.9217 313.892 21.8419L319.759 19.2497Z" fill="black"/>
<path d="M342.161 19.2497C342.311 19.1834 342.488 19.1834 342.638 19.2497L348.505 21.8419C348.686 21.9217 348.8 22.0849 348.8 22.2634V27.3365C348.8 27.515 348.686 27.6782 348.505 27.758L342.638 30.3502C342.488 30.4165 342.311 30.4165 342.161 30.3502L336.295 27.758C336.114 27.6782 336 27.515 336 27.3365V22.2634C336 22.0849 336.114 21.9217 336.295 21.8419L342.161 19.2497Z" fill="black"/>
<path d="M362.962 19.2497C363.112 19.1834 363.289 19.1834 363.439 19.2497L369.306 21.8419C369.487 21.9217 369.601 22.0849 369.601 22.2634V27.3365C369.601 27.515 369.487 27.6782 369.306 27.758L363.439 30.3502C363.289 30.4165 363.112 30.4165 362.962 30.3502L357.096 27.758C356.915 27.6782 356.801 27.515 356.801 27.3365V22.2634C356.801 22.0849 356.915 21.9217 357.096 21.8419L362.962 19.2497Z" fill="black"/>
<path d="M310.28 11.1751C310.355 11.2082 310.443 11.2082 310.518 11.1751L313.452 9.87899C313.542 9.83907 313.599 9.75748 313.599 9.66822V7.13169C313.599 7.04243 313.542 6.96083 313.452 6.92092L310.518 5.62483C310.443 5.59166 310.355 5.59166 310.28 5.62484L307.347 6.92091C307.256 6.96083 307.199 7.04243 307.199 7.13169V9.66822C307.199 9.75748 307.256 9.83907 307.347 9.87899L310.28 11.1751Z" fill="black"/>
</svg>
