<svg width="342" height="80" viewBox="0 0 342 80" fill="none" xmlns="http://www.w3.org/2000/svg">
<path d="M56.6626 80C55.5724 80 54.9105 79.5048 54.6768 78.5143L52.107 69.6C51.9513 69.2952 51.7566 69.1429 51.523 69.1429H26.7595C26.5258 69.1429 26.3312 69.2952 26.1754 69.6L23.6056 78.5143C23.372 79.5048 22.7101 80 21.6199 80H1.64549C0.243775 80 -0.262397 79.3524 0.126967 78.0571L24.7737 1.37143C25.0852 0.457144 25.7471 0 26.7595 0H51.523C52.5353 0 53.1973 0.457144 53.5087 1.37143L78.1555 78.0571C78.2334 78.2095 78.2723 78.4381 78.2723 78.7429C78.2723 79.581 77.7272 80 76.637 80H56.6626ZM31.315 52C31.2371 52.4571 31.3929 52.6857 31.7822 52.6857H46.3834C46.8506 52.6857 47.0064 52.4571 46.8506 52L39.3748 26.4C39.297 26.1714 39.1802 26.0571 39.0244 26.0571C38.8687 26.0571 38.7519 26.1714 38.674 26.4L31.315 52Z" fill="black"/>
<path d="M81.2938 80C80.7487 80 80.3204 79.8476 80.0089 79.5429C79.6974 79.2381 79.5417 78.819 79.5417 78.2857V1.71428C79.5417 1.18095 79.6974 0.761906 80.0089 0.457144C80.3204 0.152381 80.7487 0 81.2938 0H99.7497C100.295 0 100.723 0.152381 101.035 0.457144C101.346 0.761906 101.502 1.18095 101.502 1.71428V78.2857C101.502 78.819 101.346 79.2381 101.035 79.5429C100.723 79.8476 100.295 80 99.7497 80H81.2938Z" fill="black"/>
<path d="M160.492 80C159.636 80 159.091 79.619 158.857 78.8571L138.182 1.48572L138.065 1.02857C138.065 0.342857 138.493 0 139.35 0H153.834C154.613 0 155.119 0.380952 155.353 1.14286L166.45 47.6571C166.527 47.9619 166.644 48.1143 166.8 48.1143C166.956 48.1143 167.072 47.9619 167.15 47.6571L177.897 1.25715C178.13 0.419049 178.637 0 179.415 0H193.549C194.406 0 194.951 0.380952 195.185 1.14286L206.865 47.6571C206.943 47.8857 207.06 48.0381 207.216 48.1143C207.372 48.1143 207.488 47.9619 207.566 47.6571L218.313 1.25715C218.546 0.419049 219.053 0 219.831 0H233.615C234.705 0 235.133 0.495239 234.9 1.48572L215.743 78.8571C215.509 79.619 214.964 80 214.108 80H200.207C199.429 80 198.922 79.619 198.689 78.8571L186.774 29.3714C186.696 29.0667 186.58 28.9143 186.424 28.9143C186.268 28.9143 186.151 29.0667 186.073 29.3714L174.977 78.7429C174.821 79.581 174.315 80 173.458 80H160.492Z" fill="black"/>
<path d="M241.786 80C241.397 80 241.046 79.8857 240.735 79.6571C240.501 79.3524 240.384 79.0095 240.384 78.6286V1.37143C240.384 0.990479 240.501 0.685717 240.735 0.457144C241.046 0.152381 241.397 0 241.786 0H252.532C252.922 0 253.233 0.152381 253.467 0.457144C253.778 0.685717 253.934 0.990479 253.934 1.37143V78.6286C253.934 79.0095 253.778 79.3524 253.467 79.6571C253.233 79.8857 252.922 80 252.532 80H241.786Z" fill="black"/>
<path d="M267.334 80C266.556 80 266.166 79.619 266.166 78.8571V1.14286C266.166 0.380952 266.556 0 267.334 0H276.212C276.991 0 277.38 0.380952 277.38 1.14286V37.6C277.38 37.7524 277.458 37.8667 277.613 37.9429C277.769 37.9429 277.886 37.8667 277.964 37.7143L311.371 0.685719C311.683 0.228573 312.15 0 312.773 0H322.935C323.403 0 323.714 0.152381 323.87 0.457144C324.026 0.685717 323.948 0.990479 323.636 1.37143L295.836 33.4857C295.758 33.7143 295.758 33.9429 295.836 34.1714L325.622 78.6286C325.778 78.9333 325.856 79.1619 325.856 79.3143C325.856 79.7714 325.544 80 324.921 80H314.759C314.214 80 313.746 79.7714 313.357 79.3143L288.126 41.9429C288.048 41.7905 287.932 41.7143 287.776 41.7143C287.62 41.7143 287.503 41.7524 287.425 41.8286L277.613 52.5714C277.458 52.8762 277.38 53.0667 277.38 53.1429V78.8571C277.38 79.619 276.991 80 276.212 80H267.334Z" fill="black"/>
<path d="M334.875 80C334.096 80 333.707 79.619 333.707 78.8571V1.14286C333.707 0.380952 334.096 0 334.875 0H340.832C341.611 0 342 0.380952 342 1.14286V78.8571C342 79.619 341.611 80 340.832 80H334.875Z" fill="black"/>
</svg>
