<svg width="209" height="25" viewBox="0 0 209 25" fill="none" xmlns="http://www.w3.org/2000/svg">
<path fill-rule="evenodd" clip-rule="evenodd" d="M27.5217 24.1393L30.5843 24.1393L37.0901 2.76893C37.209 2.37836 36.6705 2.14166 36.4632 2.49338L29.1009 14.9826C28.9635 15.2159 28.6231 15.207 28.498 14.9668L26.9891 12.0698H23.388L21.9108 14.9013C21.7788 15.1542 21.4143 15.1466 21.293 14.8884L15.0446 1.59158C14.6316 0.641612 13.6702 0.016711 12.5965 0.000329703C11.5228 -0.0160516 10.5412 0.579204 10.0968 1.5161L0 24.1393H3.19557C4.53819 24.1393 5.75875 23.36 6.32379 22.1421L12.2835 9.29594C12.4071 9.0296 12.7858 9.02966 12.9092 9.29604L19.7898 24.1393H22.8579C23.1718 24.1393 23.4462 23.9273 23.5253 23.6234L24.8539 18.5217C24.9434 18.178 25.4315 18.1778 25.5213 18.5215L26.8544 23.624C26.9338 23.9275 27.208 24.1393 27.5217 24.1393ZM25.1968 8.62119C27.1013 8.62119 28.6452 7.07725 28.6452 5.17271C28.6452 3.26817 27.1013 1.72424 25.1968 1.72424C23.2922 1.72424 21.7483 3.26817 21.7483 5.17271C21.7483 7.07725 23.2922 8.62119 25.1968 8.62119Z" fill="#C80000"/>
<path d="M63.1392 19C62.9526 19 62.8392 18.9133 62.7992 18.74L62.3592 17.18C62.3326 17.1267 62.2992 17.1 62.2592 17.1H58.0192C57.9792 17.1 57.9459 17.1267 57.9192 17.18L57.4792 18.74C57.4392 18.9133 57.3259 19 57.1392 19H53.7192C53.4792 19 53.3926 18.8867 53.4592 18.66L57.6792 5.24C57.7326 5.08 57.8459 5 58.0192 5H62.2592C62.4326 5 62.5459 5.08 62.5992 5.24L66.8192 18.66C66.8326 18.6867 66.8392 18.7267 66.8392 18.78C66.8392 18.9267 66.7459 19 66.5592 19H63.1392ZM58.7992 14.1C58.7859 14.18 58.8126 14.22 58.8792 14.22H61.3792C61.4592 14.22 61.4859 14.18 61.4592 14.1L60.1792 9.62C60.1659 9.58 60.1459 9.56 60.1192 9.56C60.0926 9.56 60.0726 9.58 60.0592 9.62L58.7992 14.1Z" fill="black"/>
<path d="M67.9566 19C67.8632 19 67.7899 18.9733 67.7366 18.92C67.6832 18.8667 67.6566 18.7933 67.6566 18.7V5.3C67.6566 5.20667 67.6832 5.13334 67.7366 5.08C67.7899 5.02667 67.8632 5 67.9566 5H71.1166C71.2099 5 71.2833 5.02667 71.3366 5.08C71.3899 5.13334 71.4166 5.20667 71.4166 5.3V18.7C71.4166 18.7933 71.3899 18.8667 71.3366 18.92C71.2833 18.9733 71.2099 19 71.1166 19H67.9566Z" fill="black"/>
<path d="M86.333 7.18C86.333 7.24667 86.3063 7.30667 86.253 7.36C86.213 7.4 86.1597 7.42 86.093 7.42H79.533C79.4663 7.42 79.433 7.45334 79.433 7.52V10.62C79.433 10.6867 79.4663 10.72 79.533 10.72H83.833C83.8997 10.72 83.953 10.7467 83.993 10.8C84.0463 10.84 84.073 10.8933 84.073 10.96V12.9C84.073 12.9667 84.0463 13.0267 83.993 13.08C83.953 13.12 83.8997 13.14 83.833 13.14H79.533C79.4663 13.14 79.433 13.1733 79.433 13.24V16.48C79.433 16.5467 79.4663 16.58 79.533 16.58H86.093C86.1597 16.58 86.213 16.6067 86.253 16.66C86.3063 16.7 86.333 16.7533 86.333 16.82V18.76C86.333 18.8267 86.3063 18.8867 86.253 18.94C86.213 18.98 86.1597 19 86.093 19H76.853C76.7863 19 76.7263 18.98 76.673 18.94C76.633 18.8867 76.613 18.8267 76.613 18.76V5.24C76.613 5.17334 76.633 5.12 76.673 5.08C76.7263 5.02667 76.7863 5 76.853 5H86.093C86.1597 5 86.213 5.02667 86.253 5.08C86.3063 5.12 86.333 5.17334 86.333 5.24V7.18Z" fill="black"/>
<path d="M92.2327 19.16C91.166 19.16 90.2393 18.8933 89.4527 18.36C88.6793 17.8267 88.126 17.0933 87.7927 16.16C87.566 15.4933 87.4527 14.7067 87.4527 13.8C87.4527 12.9067 87.566 12.1333 87.7927 11.48C88.1127 10.5733 88.666 9.86 89.4527 9.34C90.2393 8.82 91.166 8.56 92.2327 8.56C93.2993 8.56 94.2327 8.82667 95.0327 9.36C95.846 9.89334 96.386 10.5667 96.6527 11.38C96.7593 11.7 96.8127 11.94 96.8127 12.1V12.14C96.8127 12.26 96.746 12.3333 96.6127 12.36L94.3127 12.7H94.2727C94.1527 12.7 94.0727 12.6333 94.0327 12.5L93.9727 12.18C93.8793 11.8333 93.6727 11.5467 93.3527 11.32C93.0327 11.0933 92.6527 10.98 92.2127 10.98C91.786 10.98 91.426 11.0867 91.1327 11.3C90.8393 11.5133 90.6327 11.8067 90.5127 12.18C90.366 12.58 90.2927 13.1267 90.2927 13.82C90.2927 14.5133 90.3593 15.06 90.4927 15.46C90.6127 15.86 90.8193 16.1733 91.1127 16.4C91.4193 16.6267 91.786 16.74 92.2127 16.74C92.626 16.74 92.986 16.6333 93.2927 16.42C93.6127 16.1933 93.8327 15.8867 93.9527 15.5C93.966 15.4733 93.9727 15.4333 93.9727 15.38C93.986 15.3667 93.9927 15.3467 93.9927 15.32C94.006 15.16 94.0993 15.0933 94.2727 15.12L96.5727 15.48C96.706 15.5067 96.7727 15.58 96.7727 15.7C96.7727 15.8067 96.7327 16.0067 96.6527 16.3C96.3727 17.1933 95.826 17.8933 95.0127 18.4C94.2127 18.9067 93.286 19.16 92.2327 19.16Z" fill="black"/>
<path d="M102.478 19.16C101.358 19.16 100.398 18.8667 99.5977 18.28C98.7977 17.6933 98.251 16.8933 97.9577 15.88C97.771 15.2533 97.6777 14.5733 97.6777 13.84C97.6777 13.0533 97.771 12.3467 97.9577 11.72C98.2643 10.7333 98.8177 9.96 99.6177 9.4C100.418 8.84 101.378 8.56 102.498 8.56C103.591 8.56 104.524 8.84 105.298 9.4C106.071 9.94667 106.618 10.7133 106.938 11.7C107.151 12.3667 107.258 13.0667 107.258 13.8C107.258 14.52 107.164 15.1933 106.978 15.82C106.684 16.86 106.138 17.68 105.338 18.28C104.551 18.8667 103.598 19.16 102.478 19.16ZM102.478 16.74C102.918 16.74 103.291 16.6067 103.598 16.34C103.904 16.0733 104.124 15.7067 104.258 15.24C104.364 14.8133 104.418 14.3467 104.418 13.84C104.418 13.28 104.364 12.8067 104.258 12.42C104.111 11.9667 103.884 11.6133 103.578 11.36C103.271 11.1067 102.898 10.98 102.458 10.98C102.004 10.98 101.624 11.1067 101.318 11.36C101.024 11.6133 100.811 11.9667 100.678 12.42C100.571 12.74 100.518 13.2133 100.518 13.84C100.518 14.44 100.564 14.9067 100.658 15.24C100.791 15.7067 101.011 16.0733 101.318 16.34C101.638 16.6067 102.024 16.74 102.478 16.74Z" fill="black"/>
<path d="M112.77 19.14C111.877 19.14 111.097 19.0133 110.43 18.76C109.764 18.5067 109.244 18.1533 108.87 17.7C108.51 17.2467 108.33 16.7333 108.33 16.16V15.96C108.33 15.8933 108.35 15.84 108.39 15.8C108.444 15.7467 108.504 15.72 108.57 15.72H110.79C110.857 15.72 110.91 15.7467 110.95 15.8C111.004 15.84 111.03 15.8933 111.03 15.96V15.98C111.03 16.2733 111.19 16.5267 111.51 16.74C111.844 16.94 112.257 17.04 112.75 17.04C113.204 17.04 113.57 16.9533 113.85 16.78C114.13 16.5933 114.27 16.3667 114.27 16.1C114.27 15.86 114.15 15.68 113.91 15.56C113.67 15.44 113.277 15.3133 112.73 15.18C112.104 15.02 111.61 14.8667 111.25 14.72C110.397 14.4267 109.717 14.0667 109.21 13.64C108.704 13.2133 108.45 12.6 108.45 11.8C108.45 10.8133 108.83 10.0333 109.59 9.46C110.364 8.87334 111.384 8.58 112.65 8.58C113.504 8.58 114.25 8.72 114.89 9C115.53 9.26667 116.024 9.64667 116.37 10.14C116.73 10.6333 116.91 11.1933 116.91 11.82C116.91 11.8867 116.884 11.9467 116.83 12C116.79 12.04 116.737 12.06 116.67 12.06H114.53C114.464 12.06 114.404 12.04 114.35 12C114.31 11.9467 114.29 11.8867 114.29 11.82C114.29 11.5267 114.137 11.28 113.83 11.08C113.537 10.88 113.144 10.78 112.65 10.78C112.21 10.78 111.85 10.86 111.57 11.02C111.29 11.18 111.15 11.4 111.15 11.68C111.15 11.9467 111.284 12.1467 111.55 12.28C111.83 12.4133 112.29 12.5533 112.93 12.7C113.077 12.74 113.244 12.7867 113.43 12.84C113.617 12.88 113.817 12.9333 114.03 13C114.977 13.28 115.724 13.64 116.27 14.08C116.817 14.52 117.09 15.16 117.09 16C117.09 16.9867 116.697 17.76 115.91 18.32C115.137 18.8667 114.09 19.14 112.77 19.14Z" fill="black"/>
<path d="M117.527 22.98C117.487 22.98 117.454 22.9533 117.427 22.9C117.4 22.86 117.387 22.8067 117.387 22.74V20.9C117.387 20.8333 117.407 20.7733 117.447 20.72C117.5 20.68 117.56 20.66 117.627 20.66C118.187 20.6467 118.627 20.6 118.947 20.52C119.28 20.44 119.54 20.2867 119.727 20.06C119.927 19.8333 120.08 19.5 120.187 19.06C120.2 19.0333 120.2 18.9933 120.187 18.94L116.907 8.98C116.894 8.95334 116.887 8.92 116.887 8.88C116.887 8.76 116.96 8.7 117.107 8.7H119.607C119.754 8.7 119.847 8.76667 119.887 8.9L121.567 15.38C121.58 15.42 121.6 15.44 121.627 15.44C121.654 15.44 121.674 15.42 121.687 15.38L123.367 8.9C123.407 8.76667 123.5 8.7 123.647 8.7H126.087C126.167 8.7 126.22 8.72667 126.247 8.78C126.287 8.82 126.294 8.88667 126.267 8.98L122.807 19.38C122.474 20.3533 122.134 21.08 121.787 21.56C121.44 22.0533 120.954 22.4133 120.327 22.64C119.7 22.8667 118.814 22.98 117.667 22.98H117.527Z" fill="black"/>
<path d="M130.642 19.14C129.749 19.14 128.969 19.0133 128.302 18.76C127.636 18.5067 127.116 18.1533 126.742 17.7C126.382 17.2467 126.202 16.7333 126.202 16.16V15.96C126.202 15.8933 126.222 15.84 126.262 15.8C126.316 15.7467 126.376 15.72 126.442 15.72H128.662C128.729 15.72 128.782 15.7467 128.822 15.8C128.876 15.84 128.902 15.8933 128.902 15.96V15.98C128.902 16.2733 129.062 16.5267 129.382 16.74C129.716 16.94 130.129 17.04 130.622 17.04C131.076 17.04 131.442 16.9533 131.722 16.78C132.002 16.5933 132.142 16.3667 132.142 16.1C132.142 15.86 132.022 15.68 131.782 15.56C131.542 15.44 131.149 15.3133 130.602 15.18C129.976 15.02 129.482 14.8667 129.122 14.72C128.269 14.4267 127.589 14.0667 127.082 13.64C126.576 13.2133 126.322 12.6 126.322 11.8C126.322 10.8133 126.702 10.0333 127.462 9.46C128.236 8.87334 129.256 8.58 130.522 8.58C131.376 8.58 132.122 8.72 132.762 9C133.402 9.26667 133.896 9.64667 134.242 10.14C134.602 10.6333 134.782 11.1933 134.782 11.82C134.782 11.8867 134.756 11.9467 134.702 12C134.662 12.04 134.609 12.06 134.542 12.06H132.402C132.336 12.06 132.276 12.04 132.222 12C132.182 11.9467 132.162 11.8867 132.162 11.82C132.162 11.5267 132.009 11.28 131.702 11.08C131.409 10.88 131.016 10.78 130.522 10.78C130.082 10.78 129.722 10.86 129.442 11.02C129.162 11.18 129.022 11.4 129.022 11.68C129.022 11.9467 129.156 12.1467 129.422 12.28C129.702 12.4133 130.162 12.5533 130.802 12.7C130.949 12.74 131.116 12.7867 131.302 12.84C131.489 12.88 131.689 12.9333 131.902 13C132.849 13.28 133.596 13.64 134.142 14.08C134.689 14.52 134.962 15.16 134.962 16C134.962 16.9867 134.569 17.76 133.782 18.32C133.009 18.8667 131.962 19.14 130.642 19.14Z" fill="black"/>
<path d="M142.062 10.74C142.062 10.8067 142.035 10.8667 141.982 10.92C141.942 10.96 141.889 10.98 141.822 10.98H139.902C139.835 10.98 139.802 11.0133 139.802 11.08V15.32C139.802 15.76 139.889 16.0867 140.062 16.3C140.249 16.5133 140.542 16.62 140.942 16.62H141.602C141.669 16.62 141.722 16.6467 141.762 16.7C141.815 16.74 141.842 16.7933 141.842 16.86V18.76C141.842 18.9067 141.762 18.9933 141.602 19.02C141.042 19.0467 140.642 19.06 140.402 19.06C139.295 19.06 138.469 18.88 137.922 18.52C137.375 18.1467 137.095 17.4533 137.082 16.44V11.08C137.082 11.0133 137.049 10.98 136.982 10.98H135.842C135.775 10.98 135.715 10.96 135.662 10.92C135.622 10.8667 135.602 10.8067 135.602 10.74V8.96C135.602 8.89334 135.622 8.84 135.662 8.8C135.715 8.74667 135.775 8.72 135.842 8.72H136.982C137.049 8.72 137.082 8.68667 137.082 8.62V6.24C137.082 6.17334 137.102 6.12 137.142 6.08C137.195 6.02667 137.255 6 137.322 6H139.562C139.629 6 139.682 6.02667 139.722 6.08C139.775 6.12 139.802 6.17334 139.802 6.24V8.62C139.802 8.68667 139.835 8.72 139.902 8.72H141.822C141.889 8.72 141.942 8.74667 141.982 8.8C142.035 8.84 142.062 8.89334 142.062 8.96V10.74Z" fill="black"/>
<path d="M152.323 12.8C152.403 13.3067 152.429 13.8733 152.403 14.5C152.389 14.66 152.303 14.74 152.143 14.74H145.963C145.883 14.74 145.856 14.7733 145.883 14.84C145.923 15.1067 145.996 15.3733 146.103 15.64C146.449 16.3867 147.156 16.76 148.223 16.76C149.076 16.7467 149.749 16.4 150.243 15.72C150.296 15.64 150.356 15.6 150.423 15.6C150.463 15.6 150.509 15.6267 150.563 15.68L152.003 17.1C152.069 17.1667 152.103 17.2267 152.103 17.28C152.103 17.3067 152.076 17.36 152.023 17.44C151.583 17.9867 151.016 18.4133 150.323 18.72C149.629 19.0133 148.869 19.16 148.043 19.16C146.896 19.16 145.923 18.9 145.123 18.38C144.336 17.86 143.769 17.1333 143.423 16.2C143.143 15.5333 143.003 14.66 143.003 13.58C143.003 12.8467 143.103 12.2 143.303 11.64C143.61 10.6933 144.143 9.94 144.903 9.38C145.676 8.82 146.589 8.54 147.643 8.54C148.976 8.54 150.043 8.92667 150.843 9.7C151.656 10.4733 152.149 11.5067 152.323 12.8ZM147.663 10.98C146.823 10.98 146.269 11.3733 146.003 12.16C145.949 12.3333 145.903 12.5467 145.863 12.8C145.863 12.8667 145.896 12.9 145.963 12.9H149.423C149.503 12.9 149.529 12.8667 149.503 12.8C149.436 12.4133 149.403 12.2267 149.403 12.24C149.283 11.84 149.069 11.5333 148.763 11.32C148.469 11.0933 148.103 10.98 147.663 10.98Z" fill="black"/>
<path d="M165.141 8.56C166.181 8.56 166.994 8.87334 167.581 9.5C168.167 10.1267 168.461 11.0067 168.461 12.14V18.76C168.461 18.8267 168.434 18.8867 168.381 18.94C168.341 18.98 168.287 19 168.221 19H165.881C165.814 19 165.754 18.98 165.701 18.94C165.661 18.8867 165.641 18.8267 165.641 18.76V12.76C165.641 12.2133 165.501 11.78 165.221 11.46C164.941 11.14 164.567 10.98 164.101 10.98C163.634 10.98 163.254 11.14 162.961 11.46C162.667 11.78 162.521 12.2067 162.521 12.74V18.76C162.521 18.8267 162.494 18.8867 162.441 18.94C162.401 18.98 162.347 19 162.281 19H159.961C159.894 19 159.834 18.98 159.781 18.94C159.741 18.8867 159.721 18.8267 159.721 18.76V12.76C159.721 12.2267 159.574 11.8 159.281 11.48C158.987 11.1467 158.607 10.98 158.141 10.98C157.714 10.98 157.354 11.1067 157.061 11.36C156.781 11.6133 156.614 11.9667 156.561 12.42V18.76C156.561 18.8267 156.534 18.8867 156.481 18.94C156.441 18.98 156.387 19 156.321 19H153.981C153.914 19 153.854 18.98 153.801 18.94C153.761 18.8867 153.741 18.8267 153.741 18.76V8.96C153.741 8.89334 153.761 8.84 153.801 8.8C153.854 8.74667 153.914 8.72 153.981 8.72H156.321C156.387 8.72 156.441 8.74667 156.481 8.8C156.534 8.84 156.561 8.89334 156.561 8.96V9.74C156.561 9.78 156.574 9.80667 156.601 9.82C156.627 9.83334 156.654 9.82 156.681 9.78C157.227 8.96667 158.074 8.56 159.221 8.56C159.887 8.56 160.467 8.7 160.961 8.98C161.467 9.26 161.854 9.66 162.121 10.18C162.161 10.26 162.207 10.26 162.261 10.18C162.554 9.63334 162.947 9.22667 163.441 8.96C163.947 8.69334 164.514 8.56 165.141 8.56Z" fill="black"/>
<path d="M177.104 19C176.984 19 176.911 18.9467 176.884 18.84L173.124 5.22L173.104 5.16C173.104 5.05334 173.171 5 173.304 5H174.924C175.044 5 175.117 5.06 175.144 5.18L177.764 15.14C177.777 15.1667 177.791 15.18 177.804 15.18C177.831 15.18 177.851 15.1667 177.864 15.14L180.344 5.18C180.371 5.06 180.444 5 180.564 5H182.144C182.264 5 182.337 5.06 182.364 5.18L184.984 15.16C184.997 15.1867 185.011 15.2 185.024 15.2C185.037 15.2 185.051 15.1867 185.064 15.16L187.704 5.18C187.731 5.06 187.804 5 187.924 5H189.444C189.511 5 189.557 5.02 189.584 5.06C189.624 5.1 189.637 5.15334 189.624 5.22L186.004 18.82C185.977 18.94 185.904 19 185.784 19H184.244C184.124 19 184.051 18.94 184.024 18.82L181.404 8.5C181.391 8.46 181.377 8.44 181.364 8.44C181.351 8.44 181.337 8.46 181.324 8.5L178.784 18.82C178.771 18.94 178.697 19 178.564 19H177.104Z" fill="black"/>
<path d="M192.323 7.22C191.949 7.22 191.643 7.1 191.403 6.86C191.163 6.62 191.043 6.31334 191.043 5.94C191.043 5.56667 191.163 5.26 191.403 5.02C191.643 4.78 191.949 4.66 192.323 4.66C192.696 4.66 193.003 4.78 193.243 5.02C193.483 5.26 193.603 5.56667 193.603 5.94C193.603 6.31334 193.483 6.62 193.243 6.86C193.003 7.1 192.696 7.22 192.323 7.22ZM191.523 18.98C191.389 18.98 191.323 18.9133 191.323 18.78V9.02C191.323 8.88667 191.389 8.82 191.523 8.82H193.043C193.176 8.82 193.243 8.88667 193.243 9.02V18.78C193.243 18.9133 193.176 18.98 193.043 18.98H191.523Z" fill="black"/>
<path d="M196.06 19C195.927 19 195.86 18.9333 195.86 18.8V5.2C195.86 5.06667 195.927 5 196.06 5H197.58C197.714 5 197.78 5.06667 197.78 5.2V12.9C197.78 12.9267 197.794 12.9467 197.82 12.96C197.847 12.9733 197.867 12.9667 197.88 12.94L201.58 8.92C201.634 8.85334 201.714 8.82 201.82 8.82H203.6C203.68 8.82 203.727 8.84667 203.74 8.9C203.767 8.94 203.754 8.99334 203.7 9.06L201.12 12.04C201.094 12.0933 201.087 12.1333 201.1 12.16L204.16 18.76L204.18 18.84C204.18 18.9467 204.12 19 204 19H202.4C202.294 19 202.22 18.9467 202.18 18.84L199.8 13.4C199.774 13.3333 199.74 13.3267 199.7 13.38L197.82 15.46C197.794 15.5133 197.78 15.5467 197.78 15.56V18.8C197.78 18.9333 197.714 19 197.58 19H196.06Z" fill="black"/>
<path d="M206.855 7.22C206.481 7.22 206.175 7.1 205.935 6.86C205.695 6.62 205.575 6.31334 205.575 5.94C205.575 5.56667 205.695 5.26 205.935 5.02C206.175 4.78 206.481 4.66 206.855 4.66C207.228 4.66 207.535 4.78 207.775 5.02C208.015 5.26 208.135 5.56667 208.135 5.94C208.135 6.31334 208.015 6.62 207.775 6.86C207.535 7.1 207.228 7.22 206.855 7.22ZM206.055 18.98C205.921 18.98 205.855 18.9133 205.855 18.78V9.02C205.855 8.88667 205.921 8.82 206.055 8.82H207.575C207.708 8.82 207.775 8.88667 207.775 9.02V18.78C207.775 18.9133 207.708 18.98 207.575 18.98H206.055Z" fill="black"/>
</svg>
