<svg width="30" height="32" viewBox="0 0 30 32" fill="none" xmlns="http://www.w3.org/2000/svg">
<path fill-rule="evenodd" clip-rule="evenodd" d="M1.76471 12.4444C0.790086 12.4444 0 11.6485 0 10.6667V1.77778C0 0.795941 0.790086 0 1.76471 0H26.4706C26.9386 0 27.3875 0.187294 27.7184 0.520682L29.4831 2.29841C30.1723 2.99267 30.1723 4.1183 29.4831 4.81258C28.794 5.50686 27.6766 5.50688 26.9875 4.81262L25.7396 3.55557H3.52941L3.52941 10.6667C3.52941 11.6485 2.73933 12.4444 1.76471 12.4444ZM8.66018 12.8091C8.66803 12.8143 8.70272 12.8354 8.78417 12.8508L23.6272 15.6545C28.0854 16.4966 27.4754 23.1111 22.9393 23.1111H7.05696C6.08234 23.1111 5.29225 22.3152 5.29225 21.3334C5.29225 20.3515 6.08234 19.5556 7.05696 19.5556H22.9393C23.0222 19.5556 23.0601 19.5412 23.0688 19.5376L23.0797 19.5318L23.0845 19.5276C23.0962 19.5157 23.1331 19.4648 23.1419 19.3696C23.1507 19.2744 23.1238 19.2175 23.1144 19.2036C23.1144 19.2036 23.1089 19.1962 23.1008 19.1909C23.0929 19.1858 23.0582 19.1646 22.9768 19.1492L8.13374 16.3455C3.67541 15.5034 4.28567 8.88887 8.82166 8.88887H24.704C25.6786 8.88887 26.4687 9.68481 26.4687 10.6667C26.4687 11.6485 25.6786 12.4444 24.704 12.4444H8.82166C8.73879 12.4444 8.70083 12.4588 8.69218 12.4624C8.68317 12.4661 8.67647 12.4724 8.67647 12.4724C8.66472 12.4843 8.62788 12.5352 8.6191 12.6304C8.61031 12.7257 8.63721 12.7825 8.64658 12.7964C8.64658 12.7964 8.65202 12.8038 8.66018 12.8091ZM0 21.3334C0 20.3515 0.790086 19.5556 1.76471 19.5556C2.73933 19.5556 3.52941 20.3515 3.52941 21.3334V28.4444H25.7396L26.9875 27.1874C27.6767 26.4931 28.794 26.4932 29.4832 27.1874C30.1723 27.8817 30.1723 29.0073 29.4831 29.7016L27.7184 31.4793C27.3875 31.8127 26.9386 32 26.4706 32H1.76471C0.790085 32 0 31.2041 0 30.2222V21.3334Z" fill="black"/>
</svg>
