<svg width="32" height="32" viewBox="0 0 32 32" fill="none" xmlns="http://www.w3.org/2000/svg">
<path fill-rule="evenodd" clip-rule="evenodd" d="M0 16C0 7.16344 7.16345 0 16 0V3.55556C9.12712 3.55556 3.55556 9.12712 3.55556 16C3.55556 22.8729 9.12712 28.4444 16 28.4444H16.4159C21.7723 28.4444 26.5278 25.0169 28.2217 19.9353L28.5357 18.9934L31.9088 20.1177L31.5948 21.0596C29.417 27.5931 23.3028 32 16.4159 32H16C7.16344 32 0 24.8366 0 16ZM19.5557 14.2222L26.6669 14.2223C28.6305 14.2224 30.2223 15.8142 30.2223 17.7778H26.6669L23.1112 17.7778V21.3334C23.1112 23.2971 21.5193 24.8889 19.5556 24.8888L19.5558 21.3334L19.5557 14.2222ZM16.0002 7.11108C18.76 7.11108 20.5763 7.13975 22.167 7.84674C23.6521 8.50678 25.1798 9.89005 26.8545 13.2395L30.0347 11.6494C28.1539 7.88766 26.126 5.71537 23.6111 4.59763C21.263 3.55405 18.7071 3.55477 16.1964 3.55548L16 3.55556L16.0002 7.11108Z" fill="black"/>
</svg>
