<svg width="31" height="32" viewBox="0 0 31 32" fill="none" xmlns="http://www.w3.org/2000/svg">
<path fill-rule="evenodd" clip-rule="evenodd" d="M0 12.4445C0 5.57158 5.57158 2.74673e-07 12.4445 0L26.6667 2.79324e-07C27.1382 2.60482e-07 27.5904 0.187298 27.9238 0.52069L29.7016 2.29844C30.3959 2.9927 30.3959 4.11833 29.7016 4.81261C29.0074 5.50688 27.8817 5.50689 27.1875 4.81263L25.9304 3.55557L12.4445 3.55557C7.53527 3.55557 3.55557 7.53526 3.55557 12.4445H0ZM8.70975 16H5.33335V12.4445C5.33335 11.7611 5.72508 11.1382 6.34102 10.8422C6.95696 10.5461 7.68807 10.6293 8.2217 11.0563L16 17.2789L23.7784 11.0563C24.312 10.6293 25.0431 10.5461 25.6591 10.8422C26.275 11.1382 26.6667 11.7611 26.6667 12.4445V16H23.2903L17.1106 20.9438C16.4613 21.4632 15.5388 21.4632 14.8895 20.9438L8.70975 16ZM12.4444 32C5.57155 32 0 26.4285 0 19.5556H3.55557C3.55557 24.4648 7.53523 28.4444 12.4444 28.4444H25.9304L27.1874 27.1874C27.8817 26.4931 29.0073 26.4931 29.7016 27.1874C30.3959 27.8816 30.3959 29.0072 29.7016 29.7015L27.9238 31.4793C27.5904 31.8127 27.1382 32 26.6667 32H12.4444Z" fill="black"/>
</svg>
