<svg width="32" height="31" viewBox="0 0 32 31" fill="none" xmlns="http://www.w3.org/2000/svg">
<path fill-rule="evenodd" clip-rule="evenodd" d="M1.77778 30.2222C1.77778 30.2222 1.77778 30.2222 1.77778 30.2222H5.33333C5.33333 23.2703 10.8707 17.5833 17.8201 17.398L32 17.0199V8.88889C32 3.97969 28.0203 0 23.1111 0H3.55556C1.59187 0 0 1.59187 0 3.55556H23.1111C26.0566 3.55556 28.4444 5.94337 28.4444 8.88889V13.5579L17.7253 13.8437C11.5207 14.0092 6.19754 17.6084 3.55556 22.7929V10.6667H23.1111C23.1111 8.70299 21.5192 7.11111 19.5556 7.11111H0V30.2222H1.77778Z" fill="black"/>
</svg>
