<svg width="32" height="32" viewBox="0 0 32 32" fill="none" xmlns="http://www.w3.org/2000/svg">
<path fill-rule="evenodd" clip-rule="evenodd" d="M17.7991 14.3911H19.5907C22.5782 14.3911 24.9901 11.9665 24.9851 8.98382C24.9816 6.92442 24.9781 4.268 24.9781 1.79888V0L12.4001 3.7742e-05C9.41992 4.71775e-05 7.00249 2.4164 7.0058 5.39872C7.0078 7.20554 7.01076 9.00487 7.01322 10.3524L7.01763 12.5935L7.02155 14.3911H14.2013V21.5866H17.7991V14.3911ZM10.6118 10.7933L10.611 10.3459C10.6085 8.99879 10.6056 7.20039 10.6036 5.39473C10.6025 4.40308 11.4063 3.5978 12.4001 3.5978L21.3809 3.59777C21.382 5.51102 21.3847 7.42341 21.3873 8.98991C21.389 9.98809 20.584 10.7933 19.5907 10.7933H10.6118ZM25.6815 26.9832L28.7821 20.7821L32 22.3911L27.905 30.581H24.095C20.7866 30.581 17.5674 29.5079 14.9207 27.5229C12.8967 26.0049 10.435 25.1844 7.90504 25.1844H6.31849L3.21793 31.3855L0 29.7765L4.09496 21.5866H7.90504C11.2134 21.5866 14.4326 22.6597 17.0793 24.6447C19.1033 26.1627 21.565 26.9832 24.095 26.9832H25.6815Z" fill="black"/>
</svg>
