<svg width="30" height="30" viewBox="0 0 30 30" fill="none" xmlns="http://www.w3.org/2000/svg">
<path fill-rule="evenodd" clip-rule="evenodd" d="M11.6661 0C9.41969 0 7.57379 1.12179 6.1473 2.53688C4.7248 3.94801 3.59095 5.77108 2.71787 7.50327C0.341326 12.2184 3.84414 17.0527 8.51511 17.8312L19.9994 19.7452V21.6667H23.3327V18.3333C23.3327 17.5186 22.7437 16.8233 21.9401 16.6893L9.0631 14.5432C6.05698 14.0422 4.568 11.2385 5.69449 9.00356C6.48798 7.42927 7.43072 5.95897 8.49485 4.90334C9.55498 3.85168 10.6057 3.33333 11.6661 3.33333H25.0009C25.9204 3.33333 26.6661 4.07853 26.6661 5H29.9994C29.9994 2.23958 27.7634 0 25.0009 0H11.6661ZM18.3333 30C20.5797 30 22.4256 28.8782 23.8521 27.4631C25.2746 26.052 26.4084 24.2289 27.2815 22.4967C29.6581 17.7816 26.1553 12.9473 21.4843 12.1688L10 10.2548V8.33333H6.66667V11.6667C6.66667 12.4814 7.25569 13.1767 8.05933 13.3107L20.9363 15.4568C23.9424 15.9578 25.4314 18.7615 24.3049 20.9964C23.5114 22.5707 22.5687 24.041 21.5045 25.0967C20.4444 26.1483 19.3937 26.6667 18.3333 26.6667H4.99846C4.07899 26.6667 3.33333 25.9215 3.33333 25H0C0 27.7604 2.23604 30 4.99846 30H18.3333Z" fill="black"/>
</svg>
