<svg width="31" height="32" viewBox="0 0 31 32" fill="none" xmlns="http://www.w3.org/2000/svg">
<path fill-rule="evenodd" clip-rule="evenodd" d="M8.88889 32C3.97969 32 0 28.0203 0 23.1111V12.4444H3.55556V23.1111C3.55556 26.0566 5.94337 28.4444 8.88889 28.4444H17.7778C22.687 28.4444 26.6667 24.4648 26.6667 19.5556H30.2222C30.2222 26.4284 24.6507 32 17.7778 32H8.88889ZM23.1111 0C27.0385 0 30.2222 3.18375 30.2222 7.11111H26.6667C26.6667 5.14743 25.0748 3.55556 23.1111 3.55556H19.5556H13.5416L12.4419 5.75329V19.5542L13.6999 20.8131L11.9207 22.5909C11.4122 23.099 10.6477 23.2509 9.98351 22.9757C9.31936 22.7004 8.88636 22.0523 8.88636 21.3333V5.75273L7.7886 3.55556H3.55714V7.11111H0.00158183V0H19.5556H23.1111Z" fill="black"/>
</svg>
