<svg width="100" height="100" viewBox="0 0 100 100" fill="none" xmlns="http://www.w3.org/2000/svg">
<path d="M52.7514 80C51.9481 80 51.4603 79.6286 51.2882 78.8857L49.3947 72.2C49.2799 71.9714 49.1364 71.8571 48.9643 71.8571H30.7175C30.5454 71.8571 30.4019 71.9714 30.2871 72.2L28.3936 78.8857C28.2215 79.6286 27.7337 80 26.9304 80H12.2125C11.1796 80 10.8067 79.5143 11.0936 78.5429L29.2543 21.0286C29.4838 20.3429 29.9716 20 30.7175 20H48.9643C49.7102 20 50.198 20.3429 50.4275 21.0286L68.5882 78.5429C68.6456 78.6571 68.6743 78.8286 68.6743 79.0571C68.6743 79.6857 68.2727 80 67.4693 80H52.7514ZM34.0742 59C34.0168 59.3429 34.1316 59.5143 34.4185 59.5143H45.1772C45.5215 59.5143 45.6363 59.3429 45.5215 59L40.013 39.8C39.9557 39.6286 39.8696 39.5429 39.7548 39.5429C39.6401 39.5429 39.554 39.6286 39.4966 39.8L34.0742 59Z" fill="#C80000"/>
<path d="M70.9007 80C70.499 80 70.1834 79.8857 69.9539 79.6571C69.7244 79.4286 69.6096 79.1143 69.6096 78.7143V21.2857C69.6096 20.8857 69.7244 20.5714 69.9539 20.3429C70.1834 20.1143 70.499 20 70.9007 20H84.4997C84.9014 20 85.217 20.1143 85.4465 20.3429C85.676 20.5714 85.7908 20.8857 85.7908 21.2857V78.7143C85.7908 79.1143 85.676 79.4286 85.4465 79.6571C85.217 79.8857 84.9014 80 84.4997 80H70.9007Z" fill="#C80000"/>
</svg>
