<svg width="252" height="60" viewBox="0 0 252 60" fill="none" xmlns="http://www.w3.org/2000/svg">
<path d="M41.7514 60C40.9481 60 40.4603 59.6286 40.2882 58.8857L38.3947 52.2C38.2799 51.9714 38.1364 51.8571 37.9643 51.8571H19.7175C19.5454 51.8571 19.4019 51.9714 19.2871 52.2L17.3936 58.8857C17.2215 59.6286 16.7337 60 15.9304 60H1.21246C0.179624 60 -0.193345 59.5143 0.0935543 58.5429L18.2543 1.02857C18.4838 0.342857 18.9716 0 19.7175 0H37.9643C38.7102 0 39.198 0.342857 39.4275 1.02857L57.5882 58.5429C57.6456 58.6571 57.6743 58.8286 57.6743 59.0571C57.6743 59.6857 57.2727 60 56.4693 60H41.7514ZM23.0742 39C23.0168 39.3429 23.1316 39.5143 23.4185 39.5143H34.1772C34.5215 39.5143 34.6363 39.3429 34.5215 39L29.013 19.8C28.9557 19.6286 28.8696 19.5429 28.7548 19.5429C28.6401 19.5429 28.554 19.6286 28.4966 19.8L23.0742 39Z" fill="#C80000"/>
<path d="M59.9007 60C59.499 60 59.1834 59.8857 58.9539 59.6571C58.7244 59.4286 58.6096 59.1143 58.6096 58.7143V1.28571C58.6096 0.885715 58.7244 0.571429 58.9539 0.342857C59.1834 0.114285 59.499 0 59.9007 0H73.4997C73.9014 0 74.217 0.114285 74.4465 0.342857C74.676 0.571429 74.7908 0.885715 74.7908 1.28571V58.7143C74.7908 59.1143 74.676 59.4286 74.4465 59.6571C74.217 59.8857 73.9014 60 73.4997 60H59.9007Z" fill="#C80000"/>
<path d="M118.258 60C117.626 60 117.225 59.7143 117.053 59.1429L101.818 1.11429L101.732 0.771429C101.732 0.257143 102.048 0 102.679 0H113.352C113.925 0 114.298 0.285713 114.471 0.857141L122.647 35.7429C122.705 35.9714 122.791 36.0857 122.905 36.0857C123.02 36.0857 123.106 35.9714 123.164 35.7429L131.082 0.94286C131.254 0.314287 131.627 0 132.201 0H142.615C143.247 0 143.648 0.285713 143.82 0.857141L152.427 35.7429C152.485 35.9143 152.571 36.0286 152.686 36.0857C152.8 36.0857 152.886 35.9714 152.944 35.7429L160.862 0.94286C161.034 0.314287 161.407 0 161.981 0H172.137C172.941 0 173.256 0.371428 173.084 1.11429L158.969 59.1429C158.797 59.7143 158.395 60 157.764 60H147.521C146.948 60 146.575 59.7143 146.402 59.1429L137.623 22.0286C137.566 21.8 137.48 21.6857 137.365 21.6857C137.25 21.6857 137.164 21.8 137.107 22.0286L128.93 59.0571C128.816 59.6857 128.443 60 127.811 60H118.258Z" fill="black"/>
<path d="M178.158 60C177.871 60 177.613 59.9143 177.384 59.7429C177.211 59.5143 177.125 59.2571 177.125 58.9714V1.02857C177.125 0.742859 177.211 0.514287 177.384 0.342857C177.613 0.114285 177.871 0 178.158 0H186.077C186.364 0 186.593 0.114285 186.765 0.342857C186.995 0.514287 187.109 0.742859 187.109 1.02857V58.9714C187.109 59.2571 186.995 59.5143 186.765 59.7429C186.593 59.9143 186.364 60 186.077 60H178.158Z" fill="black"/>
<path d="M196.983 60C196.41 60 196.123 59.7143 196.123 59.1429V0.857141C196.123 0.285713 196.41 0 196.983 0H203.525C204.098 0 204.385 0.285713 204.385 0.857141V28.2C204.385 28.3143 204.443 28.4 204.557 28.4571C204.672 28.4571 204.758 28.4 204.816 28.2857L229.432 0.514289C229.661 0.171429 230.005 0 230.465 0H237.953C238.297 0 238.526 0.114285 238.641 0.342857C238.756 0.514287 238.699 0.742859 238.469 1.02857L217.984 25.1143C217.927 25.2857 217.927 25.4571 217.984 25.6286L239.932 58.9714C240.047 59.2 240.104 59.3714 240.104 59.4857C240.104 59.8286 239.875 60 239.416 60H231.928C231.526 60 231.182 59.8286 230.895 59.4857L212.304 31.4571C212.246 31.3429 212.16 31.2857 212.046 31.2857C211.931 31.2857 211.845 31.3143 211.787 31.3714L204.557 39.4286C204.443 39.6571 204.385 39.8 204.385 39.8571V59.1429C204.385 59.7143 204.098 60 203.525 60H196.983Z" fill="black"/>
<path d="M246.75 60C246.176 60 245.889 59.7143 245.889 59.1429V0.857141C245.889 0.285713 246.176 0 246.75 0H251.139C251.713 0 252 0.285713 252 0.857141V59.1429C252 59.7143 251.713 60 251.139 60H246.75Z" fill="black"/>
</svg>
